<?xml version="1.0" standalone="no"?><!-- Generator: Gravit.io --><svg xmlns="http://www.w3.org/2000/svg" xmlns:xlink="http://www.w3.org/1999/xlink" style="isolation:isolate" viewBox="0 0 2834.65 2834.65" width="2834.65" height="2834.65"><defs><clipPath id="_clipPath_F5gYg8jEgS7NtI0t8FB4px7nfAiV7byO"><rect width="2834.65" height="2834.65"/></clipPath></defs><g clip-path="url(#_clipPath_F5gYg8jEgS7NtI0t8FB4px7nfAiV7byO)"><clipPath id="_clipPath_Zf5PZ4H272CZwiyYv7iJBb7oeIQB662j"><path d=" M 0 0 L 2834.65 0 L 2834.65 2834.65 L 0 2834.65 L 0 0 Z " fill="rgb(255,255,255)"/></clipPath><g clip-path="url(#_clipPath_Zf5PZ4H272CZwiyYv7iJBb7oeIQB662j)"><path d=" M 1092.232 384.768 C 1103.26 362.586 1118.529 342.753 1135.58 324.759 C 1152.734 306.806 1172.311 291.021 1193.188 277.442 C 1198.529 274.001 1203.941 270.679 1209.42 267.514 C 1185.561 284.533 1167.645 310.122 1155.198 337.836 C 1151.586 345.879 1147.802 355.043 1144.182 364.842 C 1132.59 378.909 1122.466 394.241 1114.528 410.891 C 1111.352 417.553 1109.466 424.159 1108.569 430.587 C 1107.324 430.549 1106.096 430.591 1104.865 430.622 C 1101.682 417.838 1095.796 405.604 1087.851 394.699 C 1089.285 391.376 1090.616 388.005 1092.232 384.768 Z  M 1258.712 245.945 C 1307.958 234.185 1358.329 229.302 1408.102 231.12 C 1432.987 232.019 1457.704 234.69 1482.016 239.052 C 1506.424 243.275 1530.049 249.393 1553.087 257.274 C 1598.916 273.305 1641.907 296.576 1676.46 327.984 C 1693.779 343.601 1708.751 361.341 1720.954 380.723 C 1727.004 390.567 1732.632 400.849 1737.231 411.148 C 1741.752 421.499 1745.285 432.037 1747.529 442.612 C 1752.014 463.778 1750.227 485.27 1741.159 505.776 C 1732.157 526.241 1716.849 545.566 1698.48 562.473 L 1691.559 568.857 C 1690.48 569.904 1689.12 571.016 1687.708 572.141 C 1686.392 573.273 1685.059 574.393 1683.828 575.547 C 1678.826 580.129 1674.251 584.853 1669.825 589.675 C 1660.998 599.321 1652.755 609.287 1644.896 619.515 C 1637.071 629.765 1629.735 640.342 1622.961 651.234 C 1619.303 657.295 1615.69 663.474 1612.607 669.856 L 1609.916 669.14 C 1601.662 666.944 1593.318 665.039 1585.007 663.024 C 1595.222 643.456 1604.141 623.383 1611.409 602.66 C 1614.247 599.064 1616.928 595.371 1619.506 591.625 C 1639.911 582.825 1661.69 574.974 1675.145 561.871 C 1697.397 540.201 1708.562 511.551 1706.267 483.083 C 1720.682 458.189 1724.286 426.835 1710.584 399.022 C 1693.064 363.457 1658.097 348.26 1623.106 350.369 C 1605.162 315.035 1575.214 289.169 1530.296 295.415 C 1493.784 254.324 1439.351 228.596 1384.657 240.422 C 1379.372 241.565 1374.412 243.228 1369.795 245.332 C 1352.658 243.374 1334.056 249.208 1320.997 261.449 C 1305.299 250.546 1285.577 245.06 1264.347 246.942 C 1256.87 247.604 1249.78 249.045 1242.991 251.04 C 1248.199 248.996 1253.426 247.232 1258.712 245.945 Z  M 1551.37 719.308 C 1551.79 716.95 1552.142 714.571 1552.378 712.16 C 1556.911 708.58 1560.951 704.341 1564.161 699.333 C 1564.318 699.086 1564.453 698.832 1564.61 698.585 C 1573.184 699.372 1581.899 700.188 1591 701.075 L 1590.818 699.737 C 1592.708 710.422 1595.357 718.747 1597.945 727.501 C 1582.547 724.406 1567.022 721.665 1551.37 719.308 Z  M 2166.165 1050.748 C 2168.953 1049.557 2171.165 1049.221 2172.115 1049.878 C 2173.985 1051.159 2176.469 1057.067 2176.138 1066.174 L 2176.122 1066.729 L 2176.153 1067.285 C 2176.647 1074.776 2177.086 1082.302 2177.509 1089.914 C 2170.308 1080.513 2162.991 1071.203 2155.459 1062.078 C 2158.072 1056.447 2161.595 1052.692 2166.165 1050.748 Z  M 2269.916 1235.6 C 2270.115 1234.634 2270.275 1233.669 2270.477 1232.701 C 2273.74 1216.987 2277.447 1199.179 2268.276 1181.798 C 2261.524 1169.054 2244.208 1166.121 2237.98 1165.475 C 2235.136 1164.908 2232.502 1165.025 2230.032 1165.64 C 2224.631 1157.007 2219.126 1148.446 2213.463 1139.996 C 2213.554 1132.403 2213.498 1125.34 2213.148 1119.139 C 2213.041 1117.242 2213.1 1113.733 2213.164 1109.135 C 2213.629 1073.657 2214.494 1007.612 2179.311 1006.864 C 2159.934 1006.271 2146.896 1022.184 2137.815 1041.357 C 2137.132 1040.575 2136.434 1039.809 2135.749 1039.03 C 2135.359 1035.727 2134.941 1032.98 2134.481 1031.038 C 2133.348 1026.205 2132.419 1021.179 2131.479 1016.115 C 2127.691 995.727 2123.402 972.615 2105.53 957.366 C 2080.191 935.733 2061.587 940.674 2050.413 948.654 C 2049.482 949.318 2048.639 950.173 2047.751 950.932 C 1929.609 846.832 1786.015 770.957 1627.465 733.907 C 1625.673 718.141 1623.565 702.489 1624.228 685.249 L 1624.695 673.073 L 1614.937 670.476 C 1615.225 670.041 1615.478 669.585 1615.769 669.153 C 1619.286 663.897 1623.098 658.825 1627.056 653.862 C 1634.973 643.935 1643.523 634.481 1652.263 625.242 C 1660.991 615.999 1670.072 607.054 1679.501 598.638 C 1684.214 594.441 1689.043 590.381 1693.952 586.72 C 1696.544 584.836 1698.56 583.32 1701.597 581.637 C 1704.479 579.936 1707.453 578.344 1710.232 576.466 C 1732.698 562.026 1754.618 544.311 1769.972 520.069 C 1777.769 508.112 1783.453 494.54 1786.891 480.399 C 1790.359 466.227 1791.012 451.528 1789.847 437.261 C 1787.255 408.594 1777.48 382.117 1764.878 357.921 C 1752.1 333.216 1734.949 310.685 1715.153 290.917 C 1675.179 251.535 1625.211 223.339 1572.391 205.731 C 1546.012 196.748 1518.526 190.694 1491.152 186.834 C 1463.69 183.102 1435.95 181.33 1408.334 182.312 C 1380.721 183.119 1353.266 186.282 1326.356 191.558 C 1299.483 197.073 1273.182 204.707 1247.902 214.517 C 1234.093 219.403 1221.468 226.021 1209.813 233.063 C 1198.102 240.185 1186.931 247.829 1176.458 256.248 C 1159.667 269.667 1144.183 284.437 1130.292 300.454 C 1129.953 300.535 1129.621 300.652 1129.281 300.729 C 1117.595 303.39 1105.596 304.772 1093.473 305.574 C 1069.21 306.993 1044.638 307.563 1019.795 308.512 C 970.279 310.737 919.252 316.174 870.147 332.182 C 845.645 340.101 821.789 350.531 799.269 363.31 C 776.831 376.202 755.679 391.349 736.619 408.539 C 717.54 425.704 700.18 444.534 684.973 464.683 C 669.597 484.768 656.133 505.758 644.292 528.078 C 632.542 550.356 622.771 573.731 615.782 598.011 C 608.534 622.205 604.26 647.336 603.002 672.724 C 601.683 698.112 603.998 723.831 610.061 748.925 C 616.43 773.914 626.655 798.408 641.99 820.108 C 657.044 841.914 677.377 860.684 701.016 873.94 C 722.216 885.717 745.895 892.334 769.52 894.765 C 758.841 885.501 750.736 873.971 746.213 860.291 C 716.797 847.462 692.748 825.721 677.357 799.082 C 655.876 762.448 648.869 718.424 652.325 675.399 C 655.7 632.126 669.499 589.449 689.801 549.674 C 710.649 509.98 737.153 472.226 769.482 440.812 C 801.837 409.268 840.559 384.072 883.752 366.533 C 905.31 357.684 927.915 350.712 951.086 344.858 C 974.275 338.983 998.157 335.021 1022.279 330.877 C 1046.392 326.639 1070.984 323.659 1095.453 318.066 C 1104.187 316.08 1112.95 313.857 1121.51 310.976 C 1121.072 311.527 1120.589 312.043 1120.156 312.598 C 1103.817 333.334 1090.793 356.491 1082.059 380.872 C 1081.488 382.48 1081.141 384.141 1080.618 385.761 C 1055.242 357.61 1014.861 341.75 972.178 355.931 C 948.047 363.947 932.052 383.756 909.011 393.276 C 883.894 403.653 856.702 404.276 831.765 417.07 C 787.995 439.525 752.406 479.148 729.249 522.065 C 688.303 597.95 632.999 753.173 701.457 827.475 C 723.941 851.879 749.488 863.332 776.748 866.953 C 781.184 885.138 795.236 901.729 812.828 909.911 C 810.5 911.704 808.142 913.461 805.83 915.276 C 805.415 915.124 804.966 915.043 804.553 914.888 C 803.745 915.902 803.08 917.039 802.311 918.087 C 577.523 1096.141 433.295 1371.466 433.295 1680.499 C 433.295 1874.667 490.252 2055.518 588.325 2207.315 C 586.486 2209.658 584.674 2211.902 582.905 2214.004 C 551.338 2251.491 503.094 2290.311 463.924 2288.306 C 447.123 2287.421 424.643 2266.892 412.23 2242.145 C 398.056 2213.89 395.197 2183.353 395.197 2183.353 C 395.197 2183.353 364.497 2206.235 359.952 2212.235 C 355.01 2218.752 354.578 2227.849 358.794 2236.574 L 359.46 2237.774 C 378.504 2267.896 414.688 2304.776 478.902 2309.444 C 482.441 2309.702 485.94 2309.829 489.422 2309.829 C 537.816 2309.824 580.7 2285.406 617.901 2250.448 C 794.547 2494.096 1081.441 2652.603 1405.399 2652.603 C 1942.276 2652.603 2377.502 2217.377 2377.502 1680.499 C 2377.502 1520.167 2338.662 1368.916 2269.916 1235.6 Z " fill="rgb(255,255,255)"/><path d=" M 2081.834 986.49 L 2081.567 986.736 C 2081.652 986.656 2081.749 986.575 2081.834 986.49 Z  M 642.927 2201.102 L 657.755 2221.55 C 831.092 2460.639 1110.584 2603.382 1405.395 2603.382 C 1914.276 2603.382 2328.273 2189.373 2328.273 1680.497 C 2328.273 1531.655 2293.918 1389.559 2226.157 1258.162 L 2218.146 1242.608 L 2221.222 1227.946 L 2215.187 1220.062 L 2207.271 1222.033 L 2188.319 1191.763 C 2183.181 1183.564 2177.957 1175.424 2172.573 1167.396 L 2164.069 1154.71 L 2164.091 1153.348 L 2138.431 1119.847 C 2131.594 1110.917 2124.64 1102.072 2117.493 1093.402 L 2088.682 1060.013 L 2086.876 1044.882 C 2086.727 1043.675 2086.599 1042.617 2086.438 1041.762 C 2085.264 1036.779 2084.185 1031.079 2083.116 1025.332 C 2080.894 1013.351 2078.191 998.748 2073.576 994.812 C 2073.32 994.593 2073.074 994.385 2072.828 994.187 L 2047.072 1015.953 L 2015.206 987.863 C 1901.232 887.434 1763.275 816.197 1616.272 781.841 L 1588.239 775.758 C 1573.519 772.804 1558.648 770.186 1544.035 767.98 L 1494.104 760.449 L 1502.896 710.732 C 1503.099 709.626 1503.27 708.521 1503.387 707.388 L 1505.417 686.525 L 1521.857 673.535 C 1522.285 673.198 1522.53 672.958 1522.658 672.825 L 1531.194 659.717 L 1541.375 640.226 C 1550.84 622.119 1558.767 603.995 1564.962 586.353 L 1567.687 578.592 L 1572.793 572.135 C 1574.95 569.4 1576.991 566.585 1578.945 563.733 L 1586.98 552.046 L 1609.605 542.356 C 1620.758 537.672 1636.023 531.252 1640.799 526.61 C 1652.347 515.361 1658.318 500.945 1657.196 487.041 L 1655.957 471.717 L 1663.67 458.412 C 1670.87 445.967 1671.906 431.897 1666.427 420.766 C 1656.556 400.746 1636.899 398.856 1626.067 399.502 L 1593.838 401.446 L 1579.224 372.662 C 1562.922 340.571 1545.466 343.022 1537.08 344.171 L 1510.993 347.803 L 1493.495 328.115 C 1471.574 303.438 1434.217 280.069 1395.064 288.536 C 1393.344 288.904 1391.699 289.443 1390.183 290.138 L 1377.769 295.784 L 1364.224 294.24 C 1361.158 293.919 1356.917 295.255 1354.673 297.354 L 1325.638 324.59 L 1292.927 301.889 C 1286.197 297.21 1277.747 295.207 1268.699 295.976 C 1264.821 296.318 1260.954 297.071 1256.873 298.273 L 1246.735 268.703 C 1243.092 270.61 1239.289 272.763 1235.262 275.198 C 1230.775 277.928 1226.513 280.662 1222.464 283.418 L 1238.018 307.583 C 1223.308 318.073 1210.2 335.507 1200.105 358 C 1196.676 365.638 1193.397 373.682 1190.352 381.902 L 1187.467 389.717 L 1182.169 396.142 C 1172.597 407.77 1164.777 419.863 1158.955 432.074 C 1158.111 433.869 1157.566 435.61 1157.321 437.393 L 1151.189 481.315 L 1106.866 479.788 L 1101.899 479.916 L 1101.194 482.09 L 1099.303 479.986 L 1067.373 480.813 L 1057.106 442.516 C 1055.515 436.122 1052.385 429.617 1048.08 423.698 L 1044.063 418.725 C 1038.39 412.444 1017.591 392.708 987.701 402.648 C 981.996 404.544 975.042 409.576 966.998 415.398 C 956.71 422.849 943.902 432.121 927.803 438.772 C 912.847 444.952 898.372 448.301 885.606 451.254 C 873.268 454.107 862.606 456.575 854.242 460.869 C 822.567 477.112 792.806 507.942 772.562 545.444 C 732.085 620.484 694.482 747.262 737.662 794.126 C 750.716 808.286 764.774 815.7 783.234 818.152 L 816.606 822.585 L 824.576 855.29 C 825.345 858.447 829.148 863.211 833.592 865.279 L 907.036 899.458 L 876.836 922.725 L 919.406 959.671 L 839.532 951.45 L 832.876 956.675 C 610.217 1133.046 482.516 1396.871 482.516 1680.497 C 482.516 1858.669 533.397 2031.6 629.67 2180.592 L 642.927 2201.102 Z  M 1405.395 2701.833 C 1096.301 2701.833 802.452 2560.094 609.298 2320.225 C 566.257 2348.94 521.807 2361.899 475.348 2358.545 C 409.275 2353.737 353.34 2320.193 317.863 2264.088 L 314.456 2257.977 C 302.224 2232.628 304.627 2203.699 320.748 2182.472 C 323.75 2178.487 329.454 2170.945 365.775 2143.876 L 436.024 2091.519 L 444.208 2178.755 C 444.208 2178.755 446.611 2200.889 456.236 2220.075 C 460.616 2228.803 466.791 2235.544 470.722 2238.77 C 482.43 2236.452 504.127 2223.974 527.02 2201.85 C 433.386 2044.409 384.064 1864.971 384.064 1680.497 C 384.064 1393.586 502.119 1125.007 710.57 931.923 C 698.894 927.858 687.73 922.864 677.112 916.967 C 647.093 900.136 620.985 876.346 601.479 848.069 C 584.001 823.338 570.733 793.929 562.358 761.096 C 555.073 730.928 552.263 700.541 553.844 670.159 C 555.286 640.851 560.265 611.773 568.629 583.875 C 576.075 557.985 586.939 531.31 600.752 505.111 C 613.999 480.135 628.741 457.157 645.886 434.76 C 662.68 412.508 682.197 391.282 703.69 371.941 C 724.949 352.781 748.868 335.502 774.741 320.632 C 800.219 306.173 827.14 294.347 855.011 285.341 C 913.969 266.118 972.873 261.343 1017.581 259.334 L 1040.612 258.522 C 1057.405 257.956 1074.07 257.401 1090.597 256.434 C 1095.831 256.087 1100.617 255.633 1105.05 255.061 C 1117.581 241.884 1131.202 229.396 1145.719 217.8 C 1157.31 208.479 1169.948 199.693 1184.241 190.997 C 1200.618 181.11 1215.798 173.723 1230.754 168.366 C 1258.037 157.827 1286.87 149.409 1316.461 143.336 C 1346.757 137.391 1377.042 133.978 1406.89 133.107 C 1435.456 132.087 1466.115 133.754 1497.789 138.059 C 1530.211 142.626 1560.571 149.703 1588.25 159.131 C 1650.712 179.951 1706.636 213.431 1749.698 255.852 C 1774.215 280.342 1793.957 306.99 1808.603 335.304 C 1826.059 368.805 1835.972 400.752 1838.866 432.837 C 1840.598 453.978 1839.188 473.768 1834.711 492.079 C 1829.872 511.996 1821.956 530.477 1811.198 546.961 C 1794.555 573.267 1770.936 595.898 1737.274 617.605 C 1734.443 619.491 1731.506 621.222 1728.546 622.91 L 1725.47 624.688 C 1724.808 625.105 1724.23 625.569 1723.547 626.066 C 1720.097 628.63 1716.464 631.632 1712.255 635.387 C 1704.393 642.4 1696.242 650.359 1688.059 659.033 C 1682.664 664.732 1678.018 669.828 1673.904 674.55 L 1673.424 687.144 C 1673.316 689.682 1673.306 692.208 1673.359 694.74 C 1813.143 732.717 1944.454 800.899 2056.569 893.737 C 2083.244 889.042 2111.725 897.925 2137.491 919.926 C 2151.079 931.522 2160.031 945.009 2166.174 958.533 C 2171.601 957.711 2176.536 957.534 2180.82 957.657 C 2264.338 959.43 2262.97 1064.762 2262.394 1109.741 L 2262.372 1111.115 C 2262.34 1113.587 2262.286 1115.585 2262.318 1116.947 C 2262.383 1118.021 2262.436 1119.137 2262.489 1120.312 C 2284.538 1126.839 2301.994 1140.283 2311.779 1158.754 C 2325.389 1184.552 2324.374 1209.572 2321.394 1228.352 C 2390.351 1367.937 2426.726 1523.873 2426.726 1680.497 C 2426.726 2243.663 1968.555 2701.833 1405.395 2701.833 Z " fill="rgb(255,255,255)"/><path d=" M 2409.067 1855.307 C 2411.723 1855.445 2414.455 1855.845 2417.238 1856.412 C 2418.575 1852.33 2419.804 1848.511 2420.761 1845.339 C 2428.524 1819.598 2413.933 1809.655 2395.432 1809.337 C 2397.644 1813.171 2399.588 1817.32 2401.311 1821.844 C 2405.563 1833.005 2407.967 1844.172 2409.067 1855.307 Z " fill="rgb(255,255,255)"/><path d=" M 2376.153 1842.976 C 2377.018 1844.835 2378.172 1846.78 2379.668 1848.724 C 2385.137 1855.817 2392.134 1858.413 2394.655 1858.562 L 2394.805 1849.077 L 2376.153 1842.976 Z  M 2450.398 1913.375 L 2407.443 1904.659 C 2407.026 1904.573 2406.631 1904.488 2406.225 1904.445 L 2363.964 1902.233 L 2360.076 1860.143 C 2359.339 1852.644 2357.779 1845.85 2355.311 1839.366 C 2354.499 1837.229 2353.676 1835.466 2352.79 1833.928 L 2309.365 1758.615 L 2396.29 1760.122 C 2422.794 1760.58 2444.961 1771.21 2458.709 1790.043 C 2466.678 1800.961 2478.462 1824.496 2467.896 1859.545 C 2466.828 1863.081 2465.482 1867.258 2464.018 1871.723 L 2450.398 1913.375 Z " fill="rgb(255,255,255)"/><path d=" M 2455.22 1872.979 C 2454.677 1875.933 2436.832 1919.861 2436.127 1922.759 C 2442.328 1932.142 2416.524 1985.926 2462.104 1912.752 C 2474.942 1879.599 2455.22 1872.979 2455.22 1872.979 Z " fill="rgb(255,255,255)"/><path d=" M 2407.005 1862.952 C 2406.92 1863.412 2406.856 1863.786 2406.802 1864.063 L 2407.005 1862.952 Z  M 2420.123 1903.739 C 2423.071 1909.594 2428.787 1916.024 2439.545 1919.635 L 2444.181 1905.822 L 2432.75 1901.399 C 2428.275 1901.624 2424.023 1902.478 2420.123 1903.739 Z  M 2436.639 2000.429 C 2430.667 2000.429 2424.226 1999.189 2417.196 1996.465 C 2385.33 1984.147 2384.23 1953.542 2386.313 1936.674 L 2383.215 1931.973 L 2388.3 1911.11 C 2389.379 1906.687 2390.468 1903.846 2398.715 1882.93 C 2402.069 1874.426 2405.649 1865.409 2407.443 1860.57 L 2417.079 1808.235 L 2470.888 1826.31 C 2486.976 1831.706 2501.141 1844.664 2508.79 1860.955 C 2515.318 1874.885 2520.498 1898.259 2508.021 1930.52 L 2506.344 1934.848 L 2503.887 1938.789 C 2483.536 1971.446 2465.483 2000.429 2436.639 2000.429 Z " fill="rgb(255,255,255)"/><path d=" M 2336.261 1998.875 C 2337.651 2011.919 2342.975 2021.291 2355.298 2023.87 C 2371.926 2027.35 2415.022 1998.753 2424.793 1970.862 C 2423.528 1971.604 2359.856 1934.469 2358.532 1935.16 C 2337.724 1946.036 2358.471 2007.204 2336.261 1998.875 Z " fill="rgb(255,255,255)"/><path d=" M 2357.479 2073.273 C 2353.281 2073.273 2349.179 2072.877 2345.206 2072.044 C 2312.772 2065.272 2291.119 2039.869 2287.316 2004.092 L 2278.876 1924.805 L 2302.924 1933.821 C 2307.334 1917.669 2316.5 1901.581 2335.719 1891.529 C 2360.107 1878.955 2372.958 1886.112 2415.509 1909.956 C 2417.945 1911.313 2420.667 1912.851 2423.467 1914.411 L 2515.969 1859.534 L 2471.25 1987.138 C 2456.743 2028.523 2402.059 2073.273 2357.479 2073.273 Z " fill="rgb(255,255,255)"/><path d=" M 1654.983 801.198 C 1619.903 789.152 1626.37 795.216 1619.903 801.198 C 1615.99 804.818 1619.353 826.106 1629.378 829.368 C 1779.645 869.383 1914.279 948.137 2021.827 1054.303 C 2020.595 1041.291 2024.569 1027.718 2033.716 1018.49 C 1928.188 918.016 1798.762 842.46 1654.983 801.198 Z " fill="rgb(0,0,0)"/><path d=" M 2318.141 1657.366 C 2314.958 1535.318 2287.75 1419.157 2241.125 1313.405 C 2241.564 1319.003 2242.314 1325.091 2242.617 1330.045 C 2243.64 1346.822 2236.285 1358.301 2225.597 1364.739 C 2261.552 1457.793 2282.159 1558.413 2284.281 1663.5 L 2318.141 1657.366 Z " fill="rgb(0,0,0)"/><path d=" M 2160.239 2132.347 C 2006.194 2390.205 1724.32 2563.28 1402.739 2563.28 C 1194.44 2563.28 1002.819 2490.629 851.772 2369.401 L 808.101 2377.313 C 968.212 2514.348 1175.965 2597.246 1402.739 2597.246 C 1747.113 2597.246 2047.646 2406.131 2203.984 2124.422 L 2160.239 2132.347 Z " fill="rgb(0,0,0)"/><path d=" M 570.883 1973.914 C 538.611 1882.367 520.987 1783.972 520.987 1681.523 C 520.987 1427.88 628.654 1198.923 800.669 1037.912 C 808.412 1030.664 800.101 1026.602 808.101 1019.633 C 801.888 1011.455 814.244 998.659 810.077 986.852 C 809.808 986.088 809.66 985.362 809.433 984.611 C 612.282 1152.704 487.021 1402.743 487.021 1681.523 C 487.021 1786.005 516.608 1926.394 548.979 2020.01 L 570.883 1973.914 Z " fill="rgb(0,0,0)"/><path d=" M 2423.62 1947.25 C 2422.445 1956.083 2422.105 1964.95 2422.348 1973.812 C 2432.38 1961.887 2441.862 1949.114 2450.038 1936.13 C 2483.873 1882.397 2455.22 1872.979 2455.22 1872.979 C 2450.159 1900.511 2437.989 1925.658 2423.62 1947.25 Z " fill="rgb(0,0,0)"/><path d=" M 1514.165 1954.282 C 1500.927 2059.909 1382.879 2198.534 1405.783 2071.16 C 1415.505 2034.19 1450.663 1967.988 1472.24 1958.374 C 1491.346 1949.858 1512.784 1953.527 1488.504 1934.882 C 1454.771 1908.981 1405.035 1938.978 1376.466 1990.299 C 1343.938 2048.727 1325.179 2161.891 1392.729 2170.402 C 1439.229 2176.261 1504.401 2133.967 1527.769 1973.252 C 1527.427 1972.42 1577.536 1979.422 1589.034 1974.918 C 1605.061 1968.639 1605.078 1946.026 1605.078 1946.026 C 1605.078 1946.026 1577.6 1957.841 1562.089 1958.665 C 1543.01 1959.679 1514.175 1954.207 1514.165 1954.282 Z " fill="rgb(0,0,0)"/><path d=" M 2447.713 1900.619 C 2424.002 1949.892 2387.657 1995.943 2380.027 1992.108 C 2369.686 1986.909 2409.643 1882.209 2420.762 1845.339 C 2431.88 1808.469 2397.164 1803.943 2370.734 1813.814 C 2334.853 1920.839 2263.108 2047.746 2242.12 2034.919 C 2225.217 2024.589 2280.757 1831.365 2282.426 1820.367 C 2290.016 1770.264 2224.583 1791.495 2224.583 1791.495 C 2227.714 1800.51 2214.54 1911.004 2205.099 1946.972 C 2182.257 2033.983 2220.629 2055.547 2231.827 2057.751 C 2272.934 2065.847 2306.966 2007.362 2352.218 1903.125 C 2342.219 1951.543 2319.285 2016.334 2355.298 2023.87 C 2384.777 2030.04 2421.9 1976.964 2445.761 1935.937 C 2445.497 1937.86 2446.47 1913.826 2447.713 1900.619 Z " fill="rgb(0,0,0)"/><path d=" M 1883.503 1902.934 C 1857.874 1964.817 1793.491 2067.955 1777.239 2062.955 C 1760.986 2057.955 1784.114 1964.192 1829.12 1908.56 C 1858.836 1871.827 1879.01 1877.882 1890.549 1887.131 C 1888.286 1891.804 1885.94 1897.044 1883.503 1902.934 Z  M 1993.929 1925.83 C 1976.025 1964.936 1920.263 2062.32 1902.88 2061.08 C 1885.378 2059.83 1935.218 1930.37 1951.012 1891.682 C 1963.513 1861.053 1947.261 1858.553 1936.01 1854.177 C 1926.897 1850.634 1914.913 1844.233 1897.073 1874.79 C 1881.635 1858.441 1844.039 1830.691 1794.741 1877.305 C 1729.501 1938.994 1703.879 2067.038 1761.611 2089.833 C 1783.773 2098.583 1842.247 2034.201 1859.75 1991.696 C 1847.248 2044.203 1857.874 2084.207 1886.003 2089.833 C 1908.839 2094.399 1954.292 2045.632 1982.03 1980.828 C 1980.741 1968.239 1994.399 1938.474 1993.929 1925.83 Z " fill="rgb(0,0,0)"/><path d=" M 1743.893 1791.479 C 1704.529 1860.715 1661.766 1882.314 1643.773 1895.736 C 1692.592 1771.621 1751.004 1710.698 1761.39 1714.952 C 1766.568 1717.074 1769.543 1746.365 1743.893 1791.479 Z  M 1776.79 1766.566 C 1787.679 1727.756 1786.457 1692.564 1763.553 1684.506 C 1717.034 1668.141 1673.042 1720.26 1620.594 1812.604 C 1592.608 1861.88 1563.031 1955.217 1552.267 2010.922 C 1535.375 2098.343 1566.164 2136.813 1586.896 2140.881 C 1625.877 2148.525 1661.953 2106.848 1681.225 2072.743 C 1685.598 2065.002 1728.052 1980.969 1717.54 1936.818 C 1714.327 1923.319 1705.77 1900.016 1679.421 1906.251 C 1653.76 1912.325 1649.705 1922.495 1649.705 1922.495 L 1646.1 1936.851 C 1646.1 1936.851 1728.724 1886.001 1679.377 2017.344 C 1667.574 2048.76 1630.486 2109.594 1613.504 2105.01 C 1589.075 2098.415 1605.56 2009.885 1634.676 1929.224 C 1650.897 1915.392 1668.567 1905.38 1704.176 1874.223 C 1736.07 1846.317 1762.537 1802.045 1776.79 1766.566 Z " fill="rgb(0,0,0)"/><path d=" M 1095.845 2059.902 C 1073.751 2103.201 1039.487 2120.555 1018.659 2127.356 C 1043.141 2030.306 1124.961 2002.834 1095.845 2059.902 Z  M 1155.411 2079.341 C 1165.339 2054.238 1171.014 2027.858 1179.695 2002.352 C 1181.691 1996.489 1184.553 1991.627 1187.975 1987.609 C 1179.616 1987.881 1171.989 1992.708 1167.873 2004.485 C 1159.761 2027.715 1152.547 2051.921 1146.427 2076.179 C 1118.264 2140.128 1062.349 2203.794 1038.019 2211.092 C 1015.22 2217.93 1004.974 2202.081 1014.544 2147.256 C 1054.595 2141.553 1125.845 2086.767 1117.53 2028.313 C 1108.494 1964.8 1029.587 1981.595 989.229 2041.228 C 971.422 2067.539 958.085 2107.101 954.676 2144.029 C 937.241 2171.525 902.589 2221.408 883.012 2217.318 C 858.242 2212.142 865.829 2125.999 885.475 2056.001 C 887.202 2049.851 906.848 1995.875 909.958 1989.099 C 928.438 1948.828 974.491 1866.474 1007.711 1859.371 C 1004.146 1850.55 998.337 1844.3 989.831 1841.849 C 942.445 1828.195 914.528 1865.647 867.494 1960.864 C 842.397 2011.671 824.43 2086.973 820.642 2135.666 C 816.127 2193.678 837.586 2251.798 858.518 2254.665 C 901.805 2260.584 935.901 2205.963 954.109 2171.328 C 956.116 2206.349 969.713 2234.556 1000.674 2239.403 C 1055.756 2248.024 1105.583 2179.136 1131.028 2135.964 C 1137.92 2116.688 1147.938 2098.237 1155.411 2079.341 Z " fill="rgb(0,0,0)"/><path d=" M 1301.568 1940.434 C 1284.174 1937.723 1285.931 2096.063 1260.473 2080.435 C 1203.132 2045.238 1193.746 2076.566 1193.746 2076.566 C 1193.746 2076.566 1219.648 1991.032 1222.66 1975.972 C 1210.612 1956.095 1180.495 1944.65 1170.602 1972.96 C 1162.489 1996.192 1155.276 2020.397 1149.155 2044.656 C 1144.169 2055.978 1134.216 2117.898 1132.909 2127.766 C 1126.283 2177.76 1174.471 2189.205 1174.471 2189.205 C 1179.329 2163.474 1189.348 2131.992 1201.653 2100.593 C 1219.135 2055.986 1242.539 2102.505 1261.355 2099.166 C 1241.023 2150.993 1215.566 2228.238 1258.198 2256.067 C 1301.568 2284.378 1326.866 2243.417 1326.866 2243.417 C 1326.866 2243.417 1321.948 2240.505 1320.542 2239.502 C 1264.523 2277.451 1311.205 2134.392 1332.288 2064.688 C 1353.37 1994.982 1347.949 1947.662 1301.568 1940.434 Z " fill="rgb(0,0,0)"/><path d=" M 2136.727 1836.092 C 2119.333 1833.382 2121.09 1991.722 2095.632 1976.094 C 2038.291 1940.897 2028.906 1972.224 2028.906 1972.224 C 2028.906 1972.224 2054.807 1886.69 2057.819 1871.631 C 2045.772 1851.753 2015.654 1840.309 2005.762 1868.619 C 1997.649 1891.85 1990.435 1916.055 1984.315 1940.314 C 1977.003 1956.915 1972.458 1977.845 1962.445 1993.427 C 1964.189 1997.735 1959.875 1998.507 1958.062 2004.294 C 1955.568 2012.251 1952.931 2020.23 1950.84 2028.305 C 1959.609 2015.747 1967.059 2003.514 1972.849 1993.312 C 1971.026 2003.472 1969.376 2013.557 1968.068 2023.424 C 1961.442 2073.42 2009.63 2084.864 2009.63 2084.864 C 2014.489 2059.133 2024.507 2027.65 2036.813 1996.252 C 2054.291 1951.653 2077.69 1998.148 2096.504 1994.827 C 2076.176 2046.653 2050.737 2123.904 2093.358 2151.726 C 2136.727 2180.036 2168.667 2137.508 2168.667 2137.508 C 2168.667 2137.508 2170.486 2131.748 2169.079 2130.745 C 2113.06 2168.694 2146.365 2030.05 2167.447 1960.347 C 2188.53 1890.641 2183.108 1843.321 2136.727 1836.092 Z " fill="rgb(0,0,0)"/><path d=" M 1204.34 1843.384 C 1204.34 1843.384 1277.59 1699.621 1134.467 1713.276 C 972.967 1728.682 705.591 1815.273 597.97 1893.982 C 508.96 1959.08 548.979 2020.01 548.979 2020.01 C 710.41 1862.53 965.443 1807.242 1091.097 1800.014 C 1193.309 1794.134 1204.34 1843.384 1204.34 1843.384 Z " fill="rgb(0,0,0)"/><path d=" M 876.385 1731.354 C 869.956 1722.937 859.245 1712.36 859.245 1712.36 C 846.488 1734.483 832.359 1762.193 823.983 1778.037 C 819.552 1786.422 814.467 1796.036 807.368 1809.161 C 802.912 1817.406 795.794 1831.073 786.785 1848.375 C 739.617 1938.969 641.469 2144.451 582.905 2214.003 C 551.338 2251.491 503.094 2290.311 463.925 2288.306 C 447.122 2287.421 424.643 2266.892 412.229 2242.145 C 398.055 2213.889 395.197 2183.353 395.197 2183.353 C 395.197 2183.353 364.497 2206.235 359.951 2212.235 C 355.01 2218.751 354.577 2227.848 358.794 2236.573 L 359.46 2237.773 C 378.504 2267.896 414.688 2304.775 478.902 2309.445 C 482.441 2309.704 485.94 2309.831 489.422 2309.831 C 595.069 2309.815 674.542 2193.624 725.672 2104.865 C 750.578 2061.626 776.97 2006.988 802.493 1954.15 C 823.072 1911.542 844.352 1850.506 864.552 1813.082 L 864.806 1812.583 C 876.241 1788.808 875.943 1788.499 883.352 1770.85 C 892.601 1748.837 886.817 1745.016 876.385 1731.354 Z " fill="rgb(0,0,0)"/><path d=" M 1488.988 940.528 C 1448.755 913.357 1418.37 861.991 1368.974 850.563 C 1316.569 838.438 1305.728 883.021 1269.901 908.168 C 1258.107 916.446 1268.842 933.466 1281.567 927.077 C 1298.232 918.709 1306.266 906.224 1318.445 892.531 C 1349.581 857.522 1386.873 873.214 1416.712 900.798 C 1436.717 919.292 1457.288 954.05 1488.507 945.088 C 1490.709 944.456 1490.676 941.669 1488.988 940.528 Z " fill="rgb(0,0,0)"/><path d=" M 1485.566 928.093 C 1486.632 928.093 1486.59 926.435 1485.525 926.435 C 1484.459 926.435 1484.5 928.093 1485.566 928.093 Z " fill="rgb(0,0,0)"/><path d=" M 1506.115 933.164 C 1479.417 925.709 1457.41 910.035 1432.302 899.135 C 1428.811 897.62 1424.531 902.206 1428.03 904.972 C 1450.176 922.481 1477.478 934.751 1506.079 933.491 C 1506.266 933.483 1506.296 933.215 1506.115 933.164 Z " fill="rgb(0,0,0)"/><path d=" M 1451.495 964.352 C 1429.168 983.214 1401.403 982.975 1374.144 978.105 C 1367.221 976.869 1362.672 986.475 1369.46 990.046 C 1399.401 1005.8 1433.652 990.857 1453.175 965.953 C 1454.103 964.769 1452.638 963.388 1451.495 964.352 Z " fill="rgb(0,0,0)"/><path d=" M 1575.806 843.372 C 1624.614 898.501 1679.261 947.229 1720.35 1009.06 C 1752.972 1058.149 1819.772 1222.197 1702.505 1204.962 C 1661.328 1198.911 1638.608 1165.493 1601.304 1153.276 C 1578.468 1145.798 1556.046 1150.752 1532.919 1154.771 C 1516.368 1157.648 1460.654 1176.139 1447.922 1165.276 C 1427.581 1147.919 1446.494 1097.588 1452.442 1078.25 C 1456.502 1065.052 1436.302 1060.4 1431.874 1073.11 C 1421.995 1101.468 1408.924 1142.332 1417.39 1173.171 C 1423.212 1194.378 1445.29 1201.527 1466.555 1203.877 C 1490.67 1206.542 1519.703 1191.982 1542.637 1186.971 C 1585.285 1177.653 1603.024 1198.219 1635.071 1219.306 C 1665.986 1239.648 1713.297 1253.727 1749.521 1239.47 C 1829.765 1207.886 1792.024 1086.863 1758.789 1034.055 C 1713.947 962.801 1646.641 888.686 1577.36 841.249 C 1576.037 840.344 1574.877 842.323 1575.806 843.372 Z " fill="rgb(0,0,0)"/><path d=" M 1440.563 1074.798 C 1400.681 1162.835 1280.209 1137.256 1214.079 1191.299 C 1176.838 1221.734 1175.288 1278.11 1211.395 1309.468 C 1216 1313.468 1223.955 1307.871 1220.064 1302.42 C 1182.468 1249.736 1205.505 1205.024 1262.661 1184.105 C 1292.813 1173.069 1323.896 1164.524 1354.245 1154.032 C 1393.861 1140.336 1438.274 1122.642 1443.926 1076.122 C 1444.151 1074.269 1441.499 1072.733 1440.563 1074.798 Z " fill="rgb(0,0,0)"/><path d=" M 1588.371 1175.432 C 1589.225 1175.432 1589.191 1174.106 1588.339 1174.106 C 1587.485 1174.106 1587.518 1175.432 1588.371 1175.432 Z " fill="rgb(0,0,0)"/><path d=" M 1592.901 1176.849 C 1623.975 1195.443 1651.933 1211.876 1661.605 1249.911 C 1668.656 1277.636 1655.714 1298.94 1657.88 1325.225 C 1660.67 1359.039 1686.486 1396.721 1703.187 1424.557 C 1705.231 1427.964 1710.11 1427.589 1712.048 1424.34 C 1719.457 1411.92 1709.32 1398.053 1703.364 1387.305 C 1694.356 1371.052 1682.266 1354.793 1677.261 1336.642 C 1672.058 1317.772 1675.457 1300.382 1675.145 1281.547 C 1674.376 1235.15 1642.072 1182.545 1593.862 1174.4 C 1592.405 1174.154 1591.568 1176.051 1592.901 1176.849 Z " fill="rgb(0,0,0)"/><path d=" M 1590.461 1234.167 C 1583.984 1272.105 1605.022 1309.735 1630.355 1336.813 C 1648.478 1356.183 1668.933 1366.611 1680.679 1391.662 C 1687.661 1406.553 1693.742 1419.134 1705.979 1430.469 C 1713.028 1437 1724.479 1429.984 1721.794 1420.719 C 1714.133 1394.276 1699.8 1362.418 1679.52 1344.03 C 1659.162 1325.571 1640.263 1317.599 1624.067 1293.766 C 1611.369 1275.082 1604.003 1253.568 1593.477 1233.698 C 1592.828 1232.474 1590.697 1232.783 1590.461 1234.167 Z " fill="rgb(0,0,0)"/><path d=" M 1591.343 1234.168 C 1567.881 1277.213 1504.864 1309.444 1457.872 1315.17 C 1403.854 1321.751 1347.966 1298.508 1316.379 1254.353 C 1309.651 1244.947 1291.606 1251.091 1296.62 1263.275 C 1320.804 1322.051 1398.801 1348.439 1458.484 1340.07 C 1509.985 1332.848 1583.389 1290.621 1592.871 1234.77 C 1593.023 1233.878 1591.815 1233.302 1591.343 1234.168 Z " fill="rgb(0,0,0)"/><path d=" M 1551.482 1171.277 C 1509.044 1168.481 1476.816 1172.576 1437.719 1190.084 C 1398.912 1207.463 1358.187 1234.647 1314.593 1237.673 C 1307.28 1238.18 1293.289 1239.5 1287.045 1235.725 C 1283.532 1233.601 1268.608 1196.318 1264.519 1197.587 C 1260.415 1198.861 1257.397 1209.754 1256.973 1213.121 C 1254.466 1233.009 1273.297 1247.499 1287.838 1256.647 C 1292.862 1259.808 1298.847 1251.863 1294.052 1248.157 C 1281.799 1238.686 1252.687 1218.533 1276.644 1199.148 C 1279.675 1196.695 1278.838 1191.403 1274.357 1191.446 C 1258.485 1191.598 1241.801 1203.212 1241.547 1221.065 C 1241.197 1245.749 1272.113 1262.208 1292.177 1265.371 C 1384.185 1279.873 1462.747 1181.812 1551.555 1174.261 C 1553.485 1174.097 1553.386 1171.402 1551.482 1171.277 Z " fill="rgb(0,0,0)"/><path d=" M 1342.236 906.315 C 1345.54 912.369 1351.642 922.409 1352.246 929.293 C 1352.705 934.531 1353.085 935.73 1346.284 934.628 C 1342.694 934.047 1339.082 931.706 1336.005 929.854 C 1324.39 922.866 1316.32 911.252 1308.006 900.863 C 1303.083 894.712 1289.339 895.671 1290.848 905.973 C 1294.72 932.399 1323.497 956.367 1351.105 953.59 C 1362.212 952.473 1371.444 942.984 1368.259 931.47 C 1364.689 918.559 1355.118 909.712 1343.141 905.074 C 1342.41 904.792 1341.928 905.752 1342.236 906.315 Z " fill="rgb(0,0,0)"/><path d=" M 1369.51 1008.779 C 1340.007 1021.269 1307.234 993.303 1288.575 972.893 C 1284.933 968.909 1277.683 973.398 1279.577 978.441 C 1291.37 1009.837 1342.132 1034.11 1370.013 1009.598 C 1370.376 1009.279 1369.963 1008.587 1369.51 1008.779 Z " fill="rgb(0,0,0)"/><path d=" M 1062.248 1048.464 C 1042.062 1035.897 1022.066 1023.137 1002.134 1010.089 C 997.806 1007.256 993.305 1013.81 996.891 1017.253 C 1014.528 1034.189 1037.427 1046.214 1061.288 1050.913 C 1062.771 1051.206 1063.536 1049.266 1062.248 1048.464 Z " fill="rgb(0,0,0)"/><path d=" M 2126.549 1197.393 C 2124.265 1173.725 2121.723 1150.141 2118.896 1126.486 C 2118.282 1121.35 2126.153 1120.232 2127.644 1124.974 C 2134.975 1148.302 2135.568 1174.159 2129.17 1197.622 C 2128.772 1199.08 2126.695 1198.903 2126.549 1197.393 Z " fill="rgb(0,0,0)"/><path d=" M 2190.406 1280.323 C 2191.299 1256.562 2191.926 1232.849 2192.278 1209.029 C 2192.355 1203.856 2200.305 1203.798 2201.149 1208.697 C 2205.303 1232.794 2202.443 1258.499 2192.973 1280.899 C 2192.385 1282.292 2190.348 1281.839 2190.406 1280.323 Z " fill="rgb(0,0,0)"/><path d=" M 991.284 969.463 C 957.051 957.011 944.026 936.597 921.531 910.477 C 912.159 899.595 902.619 890.955 888.823 885.983 C 859.92 875.566 829.08 887.757 808.91 909.481 C 758.225 964.072 775.141 1080.815 808.564 1140.406 C 825.16 1169.996 852.759 1195.458 885.69 1205.377 C 906.359 1211.603 924.463 1208.024 945.53 1206.568 C 957.189 1205.762 971.463 1203.546 982.988 1207.706 C 992.284 1211.061 977.715 1198.617 985.392 1210.339 C 998.104 1229.748 1000.382 1250.159 1028.829 1249.718 C 1055.371 1249.306 1069.205 1227.275 1074.086 1203.87 C 1075.878 1195.279 1064.241 1192.893 1061.231 1200.657 C 1033.907 1227.057 1016.805 1229.757 1009.923 1208.757 C 1008.222 1204.969 1006.521 1201.181 1004.82 1197.393 C 1002.961 1194.839 1003.039 1192.135 1000.605 1189.815 C 992.421 1182.015 973.968 1177.438 963.97 1175.709 C 935.193 1170.733 909.122 1178.393 882.164 1163.235 C 850.842 1145.624 833.45 1112.404 824.589 1078.906 C 817.248 1051.151 813.636 1019.964 814.729 991.197 C 815.623 967.7 821.126 936.183 843.539 922.459 C 870.673 905.844 890.407 919.458 908.019 936.134 C 932.067 958.907 956.035 995.156 992.223 975.505 C 994.972 974.012 993.739 970.356 991.284 969.463 Z " fill="rgb(0,0,0)"/><path d=" M 939.321 997.262 C 925.992 965.964 873.509 949.913 846.184 972.415 C 812.35 1000.278 830.923 1064.001 861.369 1086.394 C 867.252 1090.721 877.539 1084.693 872.335 1077.48 C 855.137 1053.644 832.078 1015.772 853.881 987.501 C 878.542 955.526 912.625 986.46 936.459 999.58 C 937.856 1000.349 940.029 998.925 939.321 997.262 Z " fill="rgb(0,0,0)"/><path d=" M 930.174 1042.997 C 935.754 1040.018 937.184 1044.112 934.464 1055.278 C 932.479 1057.322 930.428 1059.297 928.312 1061.204 C 924.396 1065.238 920.785 1069.242 918.06 1074.205 C 913.398 1082.696 909.9 1094.873 912.448 1104.54 C 917.451 1123.523 946.538 1128.558 963.057 1129.824 C 981.34 1131.225 1003.991 1122.987 1005.815 1101.92 C 1007.322 1084.51 991.179 1070.911 974.509 1073.434 C 966.757 1074.607 966.481 1086.354 974.819 1086.035 C 983.083 1085.717 993.067 1092.205 991.275 1102.36 C 989.644 1111.603 977.945 1115.181 970.412 1115.787 C 961.181 1116.53 951.185 1114.213 942.367 1111.548 C 934.928 1109.299 926.54 1106.698 924.874 1097.749 C 923.395 1089.798 929.485 1078.479 934.242 1072.761 C 938.692 1067.413 944.558 1063.496 947.783 1057.147 C 951.845 1049.149 951.769 1037.455 942.637 1032.95 C 935.379 1029.37 927.148 1032.383 926.972 1040.676 C 926.94 1042.216 928.696 1043.556 930.174 1042.997 Z " fill="rgb(0,0,0)"/><path d=" M 1559.165 978.365 C 1560.231 978.365 1560.189 976.707 1559.124 976.707 C 1558.058 976.707 1558.099 978.365 1559.165 978.365 Z " fill="rgb(0,0,0)"/><path d=" M 1557.287 979.5 C 1570.965 993.299 1583.629 1007.955 1594.789 1023.88 C 1599.822 1031.062 1604.566 1038.444 1609.011 1046.005 C 1611.69 1050.563 1622.379 1064.641 1620.62 1070.162 C 1622.621 1068.057 1624.622 1065.952 1626.623 1063.847 C 1619.402 1066.583 1603.566 1059.261 1596.631 1056.718 C 1585.843 1052.761 1575.986 1047.391 1565.868 1042.026 C 1556.613 1037.12 1545.636 1050.589 1554.605 1057.417 C 1566.26 1066.287 1635.595 1102.467 1638.456 1070.85 C 1639.776 1056.26 1620.221 1037.406 1611.735 1026.967 C 1596.469 1008.182 1579.27 991.375 1560.483 976.136 C 1558.184 974.271 1555.159 977.352 1557.287 979.5 Z " fill="rgb(0,0,0)"/><path d=" M 1604.14 1327.054 C 1604.567 1327.054 1604.55 1326.39 1604.123 1326.39 C 1603.698 1326.39 1603.713 1327.054 1604.14 1327.054 Z " fill="rgb(0,0,0)"/><path d=" M 1613.242 1314.361 C 1554.463 1317.351 1488.218 1290.507 1431.218 1307.654 C 1416.184 1312.176 1419.823 1335.212 1435.585 1334.921 C 1490.697 1333.903 1567.519 1356.869 1616.888 1326.638 C 1622.398 1323.263 1619.87 1314.024 1613.242 1314.361 Z " fill="rgb(0,0,0)"/><path d=" M 1630.193 1317.679 C 1613.729 1311.654 1596.033 1321.676 1583.108 1332.145 C 1549.374 1359.469 1538.936 1395.739 1489.07 1400.388 C 1396.693 1409.001 1351.165 1325.377 1312.012 1257.056 C 1308.667 1251.219 1299.873 1255.556 1301.533 1261.788 C 1320.131 1331.612 1373.488 1402.529 1448.772 1414.34 C 1477.121 1418.786 1508.463 1415.319 1533.596 1400.673 C 1547.864 1392.359 1557.85 1380.944 1568.088 1368.166 C 1587.163 1344.355 1601.056 1330.689 1630.263 1320.557 C 1631.735 1320.047 1631.544 1318.174 1630.193 1317.679 Z " fill="rgb(0,0,0)"/><path d=" M 1542.426 1423.209 C 1487.78 1473.999 1417.081 1505.138 1363.349 1435.411 C 1357.6 1427.952 1345.066 1432.481 1347.78 1442.441 C 1358.207 1480.696 1399.444 1498.171 1436.771 1496.299 C 1483.324 1493.964 1520.509 1462.217 1543.105 1423.707 C 1543.358 1423.276 1542.768 1422.892 1542.426 1423.209 Z " fill="rgb(0,0,0)"/><path d=" M 1095.439 1264.674 C 1096.413 1343.876 1106.781 1426.37 1167.582 1483.458 C 1225.223 1537.579 1310.317 1543.652 1382.058 1516.066 C 1394.481 1511.289 1388.841 1494.659 1376.211 1496.693 C 1303.24 1508.436 1231.599 1516.123 1175.064 1458.012 C 1124.963 1406.515 1104.77 1334.297 1098.087 1264.609 C 1097.926 1262.927 1095.418 1262.947 1095.439 1264.674 Z " fill="rgb(0,0,0)"/><path d=" M 978.442 1197.718 C 988.359 1227.87 1007.824 1253.972 1019.663 1283.553 C 1031.882 1314.088 1039.578 1345.764 1043.509 1378.435 C 1051.112 1441.619 1040.471 1502.109 1035.967 1564.88 C 1034.363 1587.24 1068.101 1589.116 1073.807 1569.066 C 1092.142 1504.639 1086.965 1431.633 1072.341 1366.934 C 1059.433 1309.827 1035.246 1229.418 986.077 1193.011 C 982.659 1190.481 976.847 1192.87 978.442 1197.718 Z " fill="rgb(0,0,0)"/><path d=" M 1321.332 1510.937 C 1282.215 1553.611 1229.904 1582.958 1171.558 1587.887 C 1116.305 1592.556 1068.078 1572.583 1020.004 1547.953 C 1011.063 1543.371 1001.308 1555.486 1009.324 1562.545 C 1104.469 1646.329 1254.058 1610.318 1326.848 1516.198 C 1329.784 1512.401 1324.719 1507.24 1321.332 1510.937 Z " fill="rgb(0,0,0)"/><path d=" M 1544.776 872.662 C 1477.04 867.458 1426.995 814.048 1358.509 807.581 C 1306.675 802.686 1239.558 819.174 1199.577 852.823 C 1191.331 859.764 1198.528 875.633 1209.124 874.396 C 1238.366 870.983 1264.338 856.418 1292.507 848.02 C 1329.891 836.876 1367.253 834.058 1405.052 844.471 C 1450.734 857.055 1496.615 893.517 1545.556 877.531 C 1548.349 876.619 1547.489 872.87 1544.776 872.662 Z " fill="rgb(0,0,0)"/><path d=" M 1068.365 848.894 C 1045.938 888.019 1034.418 949.709 1085.074 972.995 C 1092.606 976.456 1102.502 968.349 1097.003 960.445 C 1086.151 944.849 1072.869 933.112 1070.564 913.162 C 1068.218 892.852 1073.459 872.268 1077.535 852.505 C 1078.662 847.039 1071.228 843.901 1068.365 848.894 Z " fill="rgb(0,0,0)"/><path d=" M 1096.33 965.569 C 1022.419 977.492 995.588 916.208 934.752 895.944 C 924.179 892.423 916.146 872.888 921.03 884.278 C 937.67 923.089 973.071 956.95 1012.453 972.627 C 1037.392 982.555 1077.956 990.972 1098.176 968.574 C 1099.499 967.108 1098.04 965.293 1096.33 965.569 Z " fill="rgb(0,0,0)"/><path d=" M 1217.35 1096.033 C 1178.74 1109.657 1141.576 1143.808 1131.539 1184.762 C 1120.904 1228.159 1144.436 1267.172 1171.38 1299.139 C 1176.325 1305.006 1185.396 1297.105 1181.581 1290.846 C 1162.479 1259.514 1138.072 1227.473 1145.949 1188.363 C 1154.195 1147.422 1188.022 1123.806 1219.375 1100.532 C 1221.494 1098.959 1220.185 1095.033 1217.35 1096.033 Z " fill="rgb(0,0,0)"/><path d=" M 1307.082 1260.108 C 1307.082 1260.108 1351.813 1329.293 1418.964 1328.704 C 1556.379 1327.499 1592.067 1234.569 1592.067 1234.569 C 1592.067 1234.569 1612.244 1293.135 1619.495 1305.384 C 1628.26 1320.191 1661.794 1342.794 1661.794 1342.794 C 1661.794 1342.794 1672.141 1301.961 1667.862 1260.104 C 1663.485 1217.285 1627.935 1174.769 1582.079 1171.053 C 1515.146 1165.629 1307.082 1260.108 1307.082 1260.108 Z " fill="rgb(0,0,0)"/><path d=" M 1062.05 851.3 C 1062.05 851.3 1057.008 898.158 1059.322 913.439 C 1061.636 928.719 1080.563 973.546 1080.563 973.546 C 1080.563 973.546 1015.496 961.612 996.968 950.336 C 976.714 938.008 944.542 895.945 944.542 895.945 C 944.542 895.945 958.752 895.945 992.368 882.205 C 1019 871.32 1062.05 851.3 1062.05 851.3 Z " fill="rgb(0,0,0)"/><path d=" M 946.382 1556.194 C 902.66 1601.863 1006.503 1701.281 1169.846 1666.347 C 1268.444 1645.261 1361.115 1564.408 1361.115 1526.629 C 1361.115 1463.405 1261.894 1598.822 1161.068 1598.822 C 1060.241 1598.822 998.79 1501.452 946.382 1556.194 Z " fill="rgb(0,0,0)"/><path d=" M 1816.521 1388.833 C 1837.571 1379.877 1858.036 1369.709 1877.001 1357.09 C 1880.985 1355.391 1884.911 1353.542 1888.765 1351.074 C 1890.01 1350.281 1891.301 1349.428 1892.624 1348.505 C 1892.624 1348.505 1892.707 1348.501 1892.729 1348.493 C 1898.718 1354.325 1904.943 1359.573 1911.698 1364.911 C 1926.592 1376.645 1925.449 1384.62 1928.2 1400.188 C 1931.141 1416.755 1939.491 1442.84 1943.855 1459.04 C 1946.292 1468.084 1934.668 1485.978 1914.828 1497.644 C 1896.277 1508.55 1871.772 1500.432 1855.786 1487.808 C 1833.963 1470.58 1813.894 1448.267 1804.397 1421.896 C 1801.285 1413.283 1797.395 1404.35 1792.96 1395.501 C 1802.188 1394.265 1811.86 1390.823 1816.521 1388.833 Z  M 1693.672 1321.415 C 1713.745 1308.042 1735.744 1329.944 1750.859 1350.764 C 1777.079 1377.293 1793.022 1418.323 1805.859 1451.271 C 1810.505 1458.994 1815.964 1466.484 1823.833 1474.875 C 1832.618 1484.281 1848.903 1505.167 1863.224 1506.075 C 1881.249 1507.254 1901.599 1504.416 1914.828 1497.644 C 1922.443 1493.745 1938.198 1481.538 1944.522 1466.415 C 1943.627 1450.647 1938.803 1432.864 1936.214 1418.402 C 1934.274 1407.542 1934.547 1396.644 1933.391 1386.17 L 1933.381 1386.145 C 1932.938 1383.693 1932.673 1381.48 1932.387 1379.363 C 1931.752 1376.052 1930.774 1372.834 1929.553 1369.653 C 1912.573 1359.887 1888.084 1338.554 1886.641 1341.599 C 1880.385 1344.715 1874.351 1348.438 1868.698 1352.635 C 1854.462 1360.021 1839.724 1366.696 1825.004 1371.996 C 1812.036 1376.688 1799.068 1381.238 1785.505 1381.7 C 1779.671 1371.787 1773.093 1362.359 1765.933 1353.975 C 1762.474 1348.261 1758.807 1342.699 1754.764 1337.623 C 1767.934 1323.85 1806.807 1310.353 1820.442 1302.396 C 1838.199 1292.01 1856.59 1281.475 1870.917 1266.464 C 1876.522 1260.58 1882.9 1257.231 1889.734 1255.427 C 1913.635 1262.552 1930.767 1272.634 1954.92 1279.463 C 1963.813 1281.983 1971.181 1285.516 1977.421 1289.854 C 2001.053 1302.8 2021.512 1325.426 2017.469 1314.676 C 2017.87 1314.323 2017.936 1310.854 2018.443 1309.98 C 2025.21 1298 2028.708 1289.562 2035.181 1277.412 C 2041.866 1264.865 2048.759 1256.26 2049.993 1242.349 C 2054.877 1215.507 2054.955 1188.458 2049.855 1158.759 C 2044.62 1128.349 2036.05 1097.118 2037.14 1066.062 C 2037.865 1045.561 2042.517 1025.297 2053.01 1007.131 C 2075.268 969.531 2100.069 984.135 2102.915 1002.714 C 2103.418 1004.89 2103.94 1007.071 2104.47 1009.237 L 2104.52 1009.401 C 2112.061 1026.005 2114.976 1043.922 2120.126 1061.423 C 2124.323 1075.698 2125.175 1092.577 2127.285 1107.61 C 2128.282 1103.922 2140.811 1069.387 2142.436 1065.937 C 2145.544 1054.782 2151.329 1045.173 2161.865 1040.692 C 2181.134 1032.455 2187.66 1050.298 2187.073 1066.571 C 2187.583 1074.401 2188.045 1082.25 2188.485 1090.109 C 2189.78 1109.854 2191.281 1129.548 2192.725 1149.278 C 2193.199 1155.67 2193.498 1162.002 2193.708 1168.297 C 2194.884 1182.786 2199.121 1200.293 2201.47 1218.172 C 2208.043 1211.108 2227.498 1186.432 2238.184 1189.54 C 2256.72 1194.95 2251.025 1218.281 2247.428 1231.782 C 2247.32 1232.264 2247.094 1232.59 2246.909 1232.917 C 2245.417 1243.218 2244.064 1253.521 2242.614 1263.819 C 2239.08 1288.796 2240.669 1313.958 2237.264 1338.828 C 2227.747 1368.709 2207.541 1388.061 2184.895 1416.26 C 2166.319 1439.339 2148.055 1454.068 2135.49 1481.038 C 2120.992 1512.2 2086.596 1594.703 2077.583 1608.317 C 2065.229 1635.36 2055.346 1668.953 2047.525 1698.769 C 2047.496 1698.877 2047.526 1698.953 2047.496 1699.061 C 2037.582 1719.516 2005.995 1728.865 1981.429 1733.849 C 1944.877 1741.255 1900.411 1730 1870.916 1706.193 C 1874.903 1706.651 1859.254 1695.844 1848.813 1689.735 C 1830.613 1679.043 1811.833 1668.24 1796.578 1653.724 C 1778.814 1638.264 1758.225 1618.651 1746.552 1596.016 C 1743.542 1588 1741.325 1579.519 1740.248 1570.483 C 1735.869 1533.292 1742.11 1494.891 1733.217 1458.028 C 1728.349 1437.806 1718.691 1420.979 1708.885 1404.068 C 1701.917 1394.144 1694.859 1384.239 1689.231 1373.441 C 1681.557 1358.708 1677.153 1332.408 1693.672 1321.415 Z  M 1687.141 1395.189 C 1709.443 1432.496 1723.257 1462.257 1725.058 1506.952 C 1725.276 1512.314 1725.278 1517.703 1725.241 1523.135 C 1724.047 1536.213 1724.05 1548.657 1725.481 1560.533 C 1726.105 1572.439 1727.708 1584.208 1731.584 1595.515 C 1748.578 1645.182 1821.745 1669.958 1863.667 1699.281 C 1864.014 1719.931 1833.61 1740.248 1846.068 1757.922 C 1860.198 1777.98 1879.016 1793.722 1901.448 1804.042 C 1945.79 1824.432 2001.281 1841.246 2039.168 1806.839 C 2077.094 1772.347 2134.949 1716.071 2133.293 1662.474 C 2132.806 1645.646 2097.485 1617.818 2078.535 1614.219 C 2091.627 1588.033 2114.639 1528.175 2128.864 1506.896 C 2149.637 1475.839 2152.118 1471.964 2175.365 1441.937 C 2210.012 1397.173 2250.794 1367.345 2249.633 1308.619 C 2252.24 1286.344 2253.919 1263.906 2257.57 1241.847 C 2260.595 1223.276 2267.803 1204.353 2258.615 1186.92 C 2255.197 1180.472 2244.904 1177.071 2236.294 1176.303 C 2223.924 1173.328 2214.548 1202.318 2201.47 1218.172 C 2200.196 1184.085 2203.626 1144.429 2202.227 1119.756 C 2201.466 1106.407 2207.802 1018.414 2179.077 1017.802 C 2147.191 1017.12 2135.054 1086.002 2129.075 1102.043 C 2128.184 1094.557 2126.527 1044.931 2123.829 1033.532 C 2118.294 1009.885 2117.35 981.834 2098.427 965.68 C 2033.333 910.096 2024.243 1053.338 2024.443 1051.516 C 2020.792 1084.411 2029.38 1118.231 2035.074 1150.408 C 2040.797 1182.661 2052.399 1193.126 2047.95 1221.745 C 2047.135 1224.193 2043.271 1246.474 2042.606 1248.948 C 2040.583 1266.905 2029.278 1292.406 2029.255 1292.416 C 2027.295 1296.493 2021.89 1314.377 2017.469 1314.676 C 2010.717 1315.131 1982.516 1294.623 1977.421 1289.854 C 1973.632 1286.272 1895.656 1244.415 1884.369 1247.333 C 1854.493 1255.058 1847.75 1287.458 1820.442 1302.396 C 1801.72 1312.663 1756.837 1309.134 1744.964 1326.833 C 1731.483 1313.833 1715.099 1305.569 1695.406 1306.562 C 1648.23 1308.916 1675.052 1374.974 1687.141 1395.189 Z " fill="rgb(0,0,0)"/><path d=" M 2070.908 963.829 C 2069.172 963.829 2067.543 964.149 2066.031 964.801 C 2056.721 968.791 2049.723 983.218 2044.778 999.611 C 2061.545 972.669 2079.186 971.51 2088.32 973.283 C 2089.356 973.481 2090.377 973.737 2091.376 974.047 C 2091.36 974.031 2091.344 974.015 2091.322 974.004 C 2083.395 967.231 2076.554 963.829 2070.908 963.829 Z  M 2178.136 1028.748 C 2179.284 1029.105 2180.346 1029.533 2181.324 1030.003 C 2180.048 1028.78 2179.166 1028.721 2178.621 1028.737 C 2178.456 1028.737 2178.296 1028.743 2178.136 1028.748 Z  M 2236.906 1228.803 C 2236.863 1228.957 2236.815 1229.123 2236.778 1229.3 C 2236.821 1229.129 2236.863 1228.963 2236.906 1228.803 Z  M 1808.674 1403.203 C 1810.907 1408.283 1812.915 1413.287 1814.683 1418.18 C 1822.332 1439.423 1838.89 1460.527 1862.563 1479.227 C 1873.251 1487.661 1889.094 1494.033 1902.132 1491.031 C 1904.861 1490.155 1907.361 1489.157 1909.567 1488.045 C 1925.543 1478.559 1932.646 1466.338 1933.208 1462.225 C 1933.165 1461.814 1933.117 1461.403 1933.074 1460.986 C 1931.872 1456.649 1930.318 1451.287 1928.668 1445.603 C 1924.416 1430.947 1919.603 1414.34 1917.429 1402.103 C 1916.991 1399.641 1916.649 1397.365 1916.329 1395.234 C 1914.711 1384.423 1914.166 1380.78 1904.926 1373.505 C 1899.77 1369.43 1895.401 1365.787 1891.432 1362.235 C 1888.17 1364.088 1885.028 1365.541 1882.224 1366.754 C 1864.769 1378.281 1845.22 1388.509 1820.804 1398.898 C 1819.474 1399.47 1814.816 1401.387 1808.674 1403.203 Z  M 1881.14 1700.279 C 1908.317 1720.474 1947.17 1729.629 1979.256 1723.129 C 2011.047 1716.676 2030.506 1707.324 2037.124 1695.311 C 2043.822 1669.843 2054.131 1633.335 2067.634 1603.771 L 2068.462 1602.281 C 2073.803 1594.21 2091.055 1554.721 2104.916 1522.989 C 2112.949 1504.604 2120.48 1487.367 2125.571 1476.422 C 2135.041 1456.093 2147.267 1442.489 2160.204 1428.088 C 2165.471 1422.235 2170.908 1416.188 2176.367 1409.399 C 2181.019 1403.609 2185.57 1398.183 2189.95 1392.964 C 2206.461 1373.287 2219.553 1357.689 2226.554 1336.399 C 2228.061 1324.958 2228.488 1313.506 2228.942 1301.397 C 2229.423 1288.658 2229.915 1275.481 2231.778 1262.287 L 2233.547 1249.522 C 2234.375 1243.459 2235.208 1237.402 2236.084 1231.345 L 2237.109 1228.034 C 2242.536 1207.063 2239.972 1201.962 2235.956 1200.328 C 2232.089 1201.551 2224.439 1208.655 2213.196 1221.464 C 2211.84 1223.002 2210.664 1224.343 2209.714 1225.373 L 2191.617 1247.316 L 2190.559 1219.098 C 2189.56 1211.636 2188.236 1204.243 2186.959 1197.128 C 2185.186 1187.225 2183.514 1177.873 2182.809 1169.183 C 2182.568 1162.522 2182.28 1156.331 2181.815 1150.093 L 2180.816 1136.526 C 2179.689 1121.297 2178.568 1106.08 2177.564 1090.825 C 2177.126 1082.898 2176.667 1075.079 2176.154 1067.286 L 2176.122 1066.73 L 2176.137 1066.175 C 2176.469 1057.068 2173.985 1051.16 2172.116 1049.878 C 2171.165 1049.221 2168.954 1049.558 2166.166 1050.749 C 2159.948 1053.393 2155.637 1059.322 2152.972 1068.877 L 2152.337 1070.586 C 2150.825 1073.93 2138.892 1106.78 2137.841 1110.492 L 2123.691 1160.396 L 2116.453 1109.135 C 2115.834 1104.718 2115.321 1100.151 2114.798 1095.536 C 2113.596 1084.832 2112.351 1073.77 2109.633 1064.508 C 2107.939 1058.755 2106.475 1052.95 2105.017 1047.16 C 2102.064 1035.403 2099.27 1024.293 2094.559 1013.926 L 2094.014 1012.451 L 2092.262 1005.203 C 2091.36 999.552 2088.021 995.509 2084.165 994.761 C 2079.337 993.826 2071.095 998.057 2062.421 1012.703 C 2053.644 1027.904 2048.795 1046.022 2048.073 1066.453 C 2047.299 1088.534 2051.86 1111.581 2056.278 1133.871 C 2057.805 1141.589 2059.322 1149.27 2060.637 1156.903 C 2065.871 1187.407 2065.908 1215.994 2060.754 1244.308 C 2059.712 1256.557 2054.296 1265.947 2049.061 1275.032 C 2047.763 1277.286 2046.418 1279.615 2045.077 1282.104 C 2043.085 1287.851 2040.894 1293.182 2038.694 1296.958 L 2039.116 1297.162 C 2038.731 1297.957 2038.214 1299.399 2037.561 1301.12 C 2034.886 1308.202 2032.301 1315.06 2028.578 1319.707 C 2027.739 1323.174 2025.516 1325.246 2024.203 1326.207 C 2016.837 1331.586 2010.657 1327.27 2000.872 1319.606 C 1988.405 1312.673 1974.806 1301.829 1970.987 1298.705 C 1965.474 1294.907 1959.241 1292.055 1951.945 1289.993 C 1938.843 1286.287 1927.749 1281.687 1917.012 1277.238 C 1907.997 1273.499 1899.429 1269.947 1889.734 1266.871 C 1885.493 1268.398 1881.978 1270.705 1878.838 1274.007 C 1864.245 1289.299 1846.331 1299.933 1828.896 1310.125 C 1827.897 1310.745 1826.878 1311.343 1825.825 1311.919 C 1820.842 1314.809 1813.566 1318.057 1805.154 1321.812 C 1793.804 1326.875 1779.249 1333.371 1769.741 1339.593 C 1771.391 1342.045 1773.079 1344.678 1774.831 1347.557 C 1780.621 1354.405 1786.149 1362.005 1791.325 1370.225 C 1801.607 1368.826 1811.965 1365.082 1821.285 1361.712 C 1834.42 1356.979 1848.414 1350.794 1862.905 1343.316 C 1867.84 1339.705 1873.015 1336.436 1878.336 1333.579 L 1878.967 1332.249 L 1884.307 1330.721 C 1891.059 1329.017 1896.186 1332.778 1911.399 1343.957 C 1919.143 1349.645 1927.92 1356.098 1935.008 1360.173 L 1938.378 1362.112 L 1939.772 1365.745 C 1941.316 1369.783 1942.416 1373.564 1943.132 1377.303 L 1943.378 1378.996 C 1943.592 1380.625 1943.81 1382.334 1944.146 1384.199 C 1944.745 1389.316 1944.996 1393.738 1945.242 1398.199 C 1945.595 1404.565 1945.93 1410.585 1946.983 1416.482 C 1947.752 1420.766 1948.724 1425.354 1949.723 1430.097 C 1951.517 1438.574 1953.489 1447.9 1954.632 1457.055 C 1954.936 1458.438 1955.092 1459.87 1955.101 1461.338 C 1955.246 1462.834 1955.358 1464.325 1955.443 1465.793 L 1955.583 1468.309 L 1954.616 1470.632 C 1947.293 1488.136 1930.083 1502.024 1920.1 1507.232 C 1916.126 1509.534 1911.954 1511.158 1907.681 1512.194 C 1894.52 1516.221 1878.266 1518.016 1862.514 1516.996 C 1845.839 1515.938 1830.91 1499.187 1820.009 1486.955 C 1818.48 1485.241 1817.081 1483.67 1815.837 1482.34 C 1808.129 1474.115 1801.976 1466.034 1796.485 1456.911 L 1795.668 1455.239 C 1783.127 1423.046 1767.641 1383.301 1743.077 1358.454 L 1742.009 1357.187 C 1731.983 1343.386 1713.149 1321.593 1699.742 1330.518 L 1699.737 1330.523 C 1689.786 1337.141 1692.879 1356.766 1698.93 1368.388 C 1703.962 1378.04 1710.227 1386.955 1716.861 1396.393 L 1717.839 1397.782 C 1727.816 1414.917 1738.553 1433.435 1743.851 1455.468 C 1749.38 1478.388 1749.38 1501.602 1749.38 1524.046 C 1749.38 1539.712 1749.38 1554.502 1751.11 1569.202 C 1752.008 1576.728 1753.797 1584.051 1756.569 1591.566 C 1767.529 1612.472 1787.522 1631.337 1803.76 1645.471 C 1816.328 1657.419 1831.561 1666.863 1846.683 1675.793 C 1849.439 1677.38 1852.147 1678.966 1854.791 1680.558 C 1863.834 1685.868 1870.089 1690.012 1874.356 1693.41 L 1874.506 1693.527 C 1877.807 1696.171 1879.89 1698.356 1881.14 1700.279 Z  M 1869.459 1718.834 C 1867.279 1723.214 1864.679 1727.365 1862.216 1731.301 C 1855.074 1742.704 1852.494 1748.051 1855.011 1751.62 C 1868.161 1770.287 1885.322 1784.581 1906.02 1794.11 C 1965.299 1821.362 2005.273 1822.83 2031.814 1798.741 C 2074.716 1759.717 2123.787 1708.996 2122.361 1662.809 C 2122.115 1654.386 2098.63 1632.956 2081.729 1626.504 C 2071.762 1651.523 2063.873 1679.65 2058.446 1700.231 L 2057.341 1703.83 C 2048.02 1723.07 2023.898 1736.397 1983.603 1744.569 C 1946.315 1752.127 1901.336 1741.824 1869.459 1718.834 Z  M 1984.388 1837.434 C 1947.87 1837.434 1912.414 1821.126 1896.876 1813.986 C 1872.626 1802.822 1852.521 1786.082 1837.128 1764.22 C 1825.825 1748.191 1836.144 1731.718 1843.676 1719.689 C 1846.865 1714.593 1850.134 1709.37 1851.73 1704.765 L 1849.727 1703.147 C 1847.72 1701.871 1845.652 1700.594 1843.537 1699.323 C 1843.452 1699.275 1843.372 1699.221 1843.286 1699.173 L 1841.267 1697.987 C 1839.419 1696.903 1837.565 1695.819 1835.707 1694.724 C 1829.917 1691.391 1823.848 1688.037 1817.632 1684.596 C 1778.816 1663.119 1734.824 1638.779 1721.23 1599.055 C 1717.46 1588.04 1715.34 1575.98 1714.559 1561.104 C 1713.128 1549.45 1713.037 1536.459 1714.351 1522.139 C 1714.341 1517.796 1714.335 1512.583 1714.132 1507.392 C 1712.471 1466.167 1700.063 1438.125 1677.752 1400.805 C 1668.704 1385.667 1648.327 1340.576 1662.513 1314.045 C 1666.717 1306.172 1675.749 1296.59 1694.86 1295.639 C 1712.658 1294.752 1729.52 1300.259 1744.658 1312.08 C 1755.672 1304.629 1771.584 1302.081 1787.095 1299.597 C 1797.932 1297.861 1809.128 1296.066 1815.067 1292.867 L 1816.537 1292.007 C 1816.889 1291.799 1817.247 1291.59 1817.604 1291.382 C 1826.595 1285.752 1833.142 1277.542 1840.044 1268.89 C 1850.123 1256.257 1861.548 1241.937 1881.626 1236.74 C 1895.743 1233.124 1945.054 1259.201 1970.105 1273.291 C 1974.758 1275.337 1979.09 1277.74 1983.181 1280.539 C 1994.013 1286.537 2003.9 1294.165 2011.421 1300.067 C 2013.931 1295.388 2016.02 1291.136 2018.167 1286.778 C 2020.299 1282.446 2022.477 1278.013 2025.159 1272.965 C 2027.942 1265.102 2030.858 1255.499 2031.734 1247.727 L 2032.044 1246.098 C 2032.327 1244.923 2033.112 1240.623 2033.994 1235.885 C 2035.831 1225.982 2036.659 1221.688 2037.236 1219.455 C 2039.458 1204.441 2036.627 1195.793 2032.37 1182.792 C 2029.651 1174.481 2026.563 1165.064 2024.304 1152.32 C 2023.305 1146.69 2022.221 1141.023 2021.132 1135.313 C 2015.844 1107.65 2010.38 1079.047 2013.574 1050.311 L 2013.793 1050.337 C 2013.798 1031.093 2022.868 968.327 2050.413 948.654 C 2061.587 940.674 2080.191 935.733 2105.53 957.366 C 2123.402 972.616 2127.691 995.727 2131.478 1016.116 C 2132.419 1021.179 2133.348 1026.205 2134.48 1031.039 C 2135.175 1033.966 2135.778 1038.586 2136.323 1044.456 C 2145.446 1023.909 2158.886 1006.239 2179.31 1006.864 C 2214.494 1007.612 2213.629 1073.658 2213.164 1109.135 C 2213.099 1113.734 2213.041 1117.243 2213.148 1119.14 C 2213.858 1131.724 2213.372 1147.801 2212.859 1164.824 C 2212.699 1170.032 2212.539 1175.287 2212.411 1180.549 C 2219.098 1170.844 2227.041 1163.296 2237.98 1165.475 C 2244.208 1166.122 2261.524 1169.055 2268.276 1181.799 C 2277.447 1199.18 2273.74 1216.988 2270.476 1232.702 C 2269.719 1236.339 2268.96 1239.977 2268.367 1243.603 C 2265.931 1258.314 2264.35 1273.59 2262.822 1288.359 C 2262.106 1295.297 2261.391 1302.236 2260.585 1309.163 C 2261.29 1358.624 2234.94 1388.953 2207.058 1421.054 C 2199.415 1429.851 2191.51 1438.948 2184.016 1448.637 C 2161.817 1477.298 2158.923 1481.63 2140.089 1509.789 L 2137.952 1512.979 C 2129.555 1525.537 2117.19 1554.054 2106.283 1579.217 C 2101.797 1589.558 2097.481 1599.514 2093.614 1607.964 C 2115.866 1618.353 2143.673 1642.971 2144.228 1662.158 C 2145.932 1717.253 2092.909 1772.745 2046.53 1814.931 C 2028.064 1831.703 2006.042 1837.434 1984.388 1837.434 Z " fill="rgb(0,0,0)"/><path d=" M 1800.176 1312.064 C 1785.631 1319.455 1771.16 1326.817 1757.594 1334.986 C 1767.374 1326.734 1785.246 1318.715 1800.176 1312.064 Z " fill="rgb(0,0,0)"/><path d=" M 1763.24 1344.357 L 1750.539 1326.629 C 1761.659 1317.245 1780.547 1308.832 1795.726 1302.07 L 1805.133 1321.817 C 1791.074 1328.963 1776.53 1336.351 1763.24 1344.357 Z " fill="rgb(0,0,0)"/><path d=" M 1941.623 1445.372 C 1939.837 1435.962 1937.686 1426.636 1936.215 1418.402 C 1935.007 1411.689 1934.657 1404.967 1934.287 1398.337 C 1936.935 1411.746 1941.524 1430.199 1941.623 1445.372 Z " fill="rgb(0,0,0)"/><path d=" M 1930.879 1447.419 C 1930.072 1443.172 1929.192 1438.941 1928.331 1434.829 C 1927.279 1429.776 1926.264 1424.889 1925.447 1420.333 C 1924.154 1413.127 1923.765 1406.162 1923.391 1399.426 L 1945.018 1396.216 L 1946.652 1404.127 C 1949.242 1416.492 1952.474 1431.881 1952.565 1445.298 L 1930.879 1447.419 Z " fill="rgb(0,0,0)"/><path d=" M 918.226 736.423 C 941.139 718.074 967.7 704.187 994.747 691.916 C 1021.954 679.837 1050.248 670.007 1079.028 661.829 C 1136.678 645.754 1196.314 636.33 1256.076 632.75 C 1315.872 628.875 1375.835 630.773 1435.068 636.883 C 1494.31 643.086 1552.823 653.949 1609.915 669.14 L 1624.695 673.073 L 1624.226 685.25 C 1622.991 717.379 1631.434 743.976 1629.378 776.126 C 1628.401 792.199 1629.378 829.368 1624.143 841.018 C 1617.529 855.732 1589.276 848.514 1577.359 841.249 C 1587.715 835.243 1599.849 845.604 1604.606 830.189 C 1611.379 808.248 1606.878 776.897 1605.078 760.894 C 1601.374 728.891 1591.853 718.173 1588.971 686.149 L 1591 701.075 C 1533.122 695.436 1487.851 691.951 1430.439 688.988 C 1373.04 686.098 1315.744 684.556 1258.583 686.256 C 1201.402 687.611 1144.392 691.893 1087.569 699.465 C 1030.788 707.394 974.096 717.756 918.226 736.423 Z " fill="rgb(0,0,0)"/><path d=" M 920.014 776.126 C 923.349 798.401 926.267 820.687 928.899 842.979 C 931.522 865.271 933.976 887.568 936.143 909.871 L 918.175 898.727 C 969.734 872.101 1023.338 851.32 1078.45 833.767 C 1133.551 816.429 1190.119 803.05 1247.593 794.032 C 1276.348 789.611 1305.34 786.401 1334.433 784.283 C 1363.563 782.448 1392.82 781.874 1422.021 782.887 C 1451.235 783.965 1480.393 786.93 1509.153 791.596 C 1537.888 796.658 1592.783 804.198 1619.904 814.151 C 1590.779 814.657 1535.808 814.675 1507.55 816.148 C 1479.276 817.919 1451.287 820.266 1423.405 823.137 C 1367.659 829.297 1312.438 837.691 1257.365 847.651 C 1202.331 857.781 1147.454 869.22 1092.639 881.829 C 1037.876 894.296 982.688 907.547 928.148 921.624 L 909.38 926.469 L 910.179 910.48 C 911.296 888.1 912.702 865.713 914.276 843.322 C 915.858 820.931 917.728 798.534 920.014 776.126 Z " fill="rgb(0,0,0)"/><path d=" M 1606.599 685.698 C 1609.703 673.382 1616.369 662.156 1622.961 651.234 C 1629.736 640.342 1637.073 629.764 1644.896 619.514 C 1652.756 609.286 1660.998 599.321 1669.826 589.675 C 1674.251 584.853 1678.826 580.129 1683.828 575.546 C 1685.059 574.393 1686.392 573.272 1687.708 572.14 C 1689.12 571.015 1690.48 569.904 1691.559 568.857 L 1698.481 562.472 C 1716.849 545.565 1732.158 526.24 1741.16 505.776 C 1750.227 485.27 1752.014 463.778 1747.529 442.612 C 1745.286 432.036 1741.752 421.498 1737.231 411.148 C 1732.632 400.849 1727.004 390.567 1720.953 380.723 C 1708.751 361.341 1693.779 343.601 1676.46 327.984 C 1641.908 296.576 1598.916 273.304 1553.087 257.273 C 1530.05 249.392 1506.424 243.275 1482.016 239.052 C 1457.704 234.69 1432.988 232.019 1408.102 231.119 C 1358.328 229.301 1307.958 234.185 1258.712 245.945 C 1247.469 248.681 1236.486 253.444 1225.4 258.909 C 1214.377 264.367 1203.657 270.698 1193.188 277.442 C 1172.311 291.021 1152.734 306.804 1135.58 324.759 C 1118.53 342.753 1103.26 362.585 1092.232 384.767 C 1081.187 406.893 1074.295 431.14 1072.694 456.302 C 1070.18 431.278 1073.399 405.294 1082.059 380.872 C 1090.793 356.491 1103.817 333.334 1120.156 312.596 C 1136.428 291.778 1155.487 273.007 1176.458 256.248 C 1186.932 247.828 1198.101 240.184 1209.813 233.063 C 1221.469 226.021 1234.093 219.403 1247.903 214.516 C 1273.182 204.707 1299.483 197.073 1326.355 191.557 C 1353.266 186.281 1380.721 183.119 1408.334 182.312 C 1435.951 181.329 1463.69 183.102 1491.153 186.834 C 1518.527 190.694 1546.012 196.748 1572.391 205.731 C 1625.211 223.338 1675.179 251.534 1715.155 290.916 C 1734.95 310.685 1752.1 333.215 1764.878 357.921 C 1777.481 382.116 1787.255 408.593 1789.847 437.26 C 1791.012 451.528 1790.361 466.226 1786.891 480.399 C 1783.453 494.539 1777.769 508.112 1769.972 520.068 C 1754.619 544.311 1732.699 562.025 1710.232 576.465 C 1707.453 578.344 1704.479 579.936 1701.597 581.637 C 1698.56 583.32 1696.543 584.836 1693.953 586.72 C 1689.043 590.381 1684.214 594.441 1679.501 598.637 C 1670.073 607.052 1660.992 615.998 1652.263 625.241 C 1643.524 634.48 1634.973 643.935 1627.056 653.862 C 1623.098 658.824 1619.286 663.896 1615.769 669.153 C 1612.233 674.397 1608.901 679.799 1606.599 685.698 Z " fill="rgb(0,0,0)"/><path d=" M 1161.348 285.386 C 1154.447 295.396 1143.121 302.254 1131.607 307.216 C 1119.932 312.106 1107.658 315.292 1095.453 318.066 C 1070.984 323.659 1046.392 326.639 1022.279 330.877 C 998.157 335.021 974.276 338.983 951.086 344.858 C 927.916 350.712 905.31 357.684 883.751 366.533 C 840.559 384.072 801.837 409.268 769.483 440.812 C 737.154 472.227 710.649 509.98 689.801 549.674 C 669.499 589.449 655.7 632.126 652.325 675.399 C 648.869 718.424 655.875 762.448 677.357 799.082 C 698.477 835.639 735.774 863.177 781.096 870.761 C 803.546 874.987 827.409 874.781 851.108 871.32 C 874.917 868.097 898.492 861.395 921.827 853.35 C 911.533 859.991 900.71 865.912 889.558 871.427 C 878.315 876.73 866.638 881.354 854.579 885.257 C 830.442 892.817 804.477 897.028 777.97 895.702 C 751.581 894.159 724.746 887.122 701.016 873.94 C 677.377 860.684 657.044 841.914 641.99 820.108 C 626.656 798.408 616.43 773.915 610.061 748.925 C 603.998 723.831 601.683 698.112 603.002 672.724 C 604.26 647.336 608.534 622.206 615.783 598.011 C 622.771 573.732 632.542 550.357 644.292 528.078 C 656.133 505.758 669.598 484.768 684.973 464.683 C 700.18 444.534 717.54 425.704 736.619 408.539 C 755.679 391.348 776.831 376.201 799.268 363.309 C 821.789 350.532 845.645 340.101 870.146 332.181 C 919.251 316.174 970.279 310.737 1019.796 308.512 C 1044.639 307.564 1069.21 306.993 1093.473 305.573 C 1105.596 304.771 1117.595 303.39 1129.282 300.73 C 1140.911 298.07 1152.327 293.627 1161.348 285.386 Z " fill="rgb(0,0,0)"/><path d=" M 801.485 799.556 C 807.396 798.353 812.93 796.383 818.207 793.863 C 820.877 792.73 823.486 791.501 826.015 790.066 C 828.567 788.719 831.104 787.416 833.509 785.797 C 843.371 779.979 852.468 773.037 861.152 765.815 C 878.523 751.286 893.983 734.784 908.642 717.733 L 919.463 704.775 C 922.997 700.4 926.364 695.851 929.818 691.409 C 936.809 682.599 943.304 673.349 949.828 664.15 C 956.548 655.116 962.588 645.515 968.88 636.145 C 975.062 627.159 981.974 616.532 989.377 606.851 C 1004.375 587.403 1022.155 569.411 1042.931 554.655 C 1048.072 550.929 1053.616 547.65 1059.027 544.28 C 1064.678 541.209 1070.22 538.003 1076.185 535.49 C 1087.806 529.967 1100.169 525.888 1112.696 522.923 C 1163.044 511.114 1216.483 520.433 1256.704 546.117 C 1210.182 534.62 1162.505 535.629 1121.447 550.509 C 1100.93 557.933 1082.033 568.66 1065.26 582.088 C 1048.473 595.504 1033.486 611.24 1020.269 628.538 C 1007.481 645.243 994.204 666.029 979.313 684.353 C 971.798 693.598 964.46 702.939 956.082 711.598 C 951.973 715.973 948.074 720.482 943.801 724.725 L 930.706 737.221 C 912.832 753.462 893.606 768.658 871.932 780.448 C 860.909 786.031 849.894 791.567 837.901 794.986 C 826.093 798.42 813.636 801.145 801.485 799.556 Z " fill="rgb(0,0,0)"/><path d=" M 1646.766 1758.892 C 1633.75 1679.825 1612.94 1600.067 1543.647 1551.705 C 1475.61 1504.222 1387.934 1511.606 1318.606 1552.75 C 1305.907 1560.287 1315.074 1580.613 1329.213 1576.318 C 1403.652 1553.705 1473.225 1534.088 1540.274 1587.215 C 1594.584 1630.247 1625.414 1694.372 1643.498 1759.881 C 1644.101 1762.063 1647.112 1760.993 1646.766 1758.892 Z " fill="rgb(0,0,0)"/><path d=" M 1181.353 2419.684 C 1193.715 2404.429 1199.709 2396.703 1211.321 2381.076 C 1208.474 2363.568 1207.219 2354.817 1205.047 2337.338 C 1210.249 2338.736 1212.854 2339.412 1218.07 2340.719 C 1219.318 2351.5 1220.002 2356.896 1221.493 2367.691 C 1227.74 2358.74 1230.807 2354.237 1236.821 2345.183 C 1242.057 2346.363 1244.677 2346.93 1249.924 2348.021 C 1239.996 2362.622 1234.868 2369.854 1224.288 2384.164 C 1227.747 2403.382 1229.682 2412.996 1233.963 2432.208 C 1228.155 2431.01 1225.253 2430.388 1219.458 2429.092 C 1217.203 2416.75 1216.154 2410.58 1214.219 2398.244 C 1206.985 2408.396 1203.293 2413.439 1195.763 2423.453 C 1189.991 2421.995 1187.109 2421.242 1181.353 2419.684 Z " fill="rgb(0,0,0)"/><path d=" M 1285.88 2411.027 C 1285.11 2398.353 1284.773 2392.018 1284.194 2379.353 C 1284.094 2379.338 1284.044 2379.329 1283.943 2379.313 C 1279.484 2391.181 1277.207 2397.103 1272.561 2408.922 C 1277.885 2409.806 1280.549 2410.227 1285.88 2411.027 Z  M 1247.422 2434.874 C 1262.386 2402.833 1269.461 2386.677 1282.792 2354.141 C 1286.941 2354.825 1289.017 2355.153 1293.171 2355.782 C 1295.813 2390.842 1297.554 2408.39 1301.874 2443.48 C 1296.347 2442.782 1293.585 2442.411 1288.064 2441.625 C 1287.478 2434.102 1287.201 2430.341 1286.683 2422.821 C 1279.319 2421.738 1275.641 2421.157 1268.292 2419.915 C 1265.478 2426.909 1264.054 2430.4 1261.174 2437.376 C 1255.669 2436.419 1252.918 2435.918 1247.422 2434.874 Z " fill="rgb(0,0,0)"/><path d=" M 1360.493 2448.92 C 1354.951 2448.591 1352.179 2448.404 1346.638 2447.987 C 1347.778 2432.819 1348.348 2425.236 1349.487 2410.069 C 1348.788 2410.097 1347.916 2410.133 1346.868 2410.168 C 1345.813 2410.209 1344.423 2410.157 1342.692 2410.014 C 1339.656 2409.761 1336.741 2409.101 1333.964 2408.035 C 1331.181 2406.97 1328.928 2405.494 1327.206 2403.627 C 1325.48 2401.754 1324.314 2399.454 1323.703 2396.725 C 1323.087 2393.994 1322.946 2391.157 1323.267 2388.205 C 1324.492 2376.961 1325.104 2371.339 1326.329 2360.095 C 1331.327 2360.639 1333.829 2360.892 1338.831 2361.357 C 1337.837 2372.045 1337.339 2377.389 1336.345 2388.076 C 1336.219 2389.433 1336.261 2390.81 1336.474 2392.197 C 1336.688 2393.585 1337.225 2394.761 1338.082 2395.729 C 1339.563 2397.391 1341.935 2398.367 1345.186 2398.632 C 1345.869 2398.688 1346.555 2398.721 1347.247 2398.732 C 1347.932 2398.749 1348.495 2398.726 1348.923 2398.687 C 1349.437 2398.639 1349.92 2398.602 1350.353 2398.548 C 1351.434 2384.15 1351.976 2376.951 1353.058 2362.554 C 1358.064 2362.93 1360.568 2363.098 1365.576 2363.396 C 1363.542 2397.606 1362.526 2414.709 1360.493 2448.92 Z " fill="rgb(0,0,0)"/><path d=" M 1415.039 2420.521 C 1412.389 2408.107 1411.111 2401.896 1408.65 2389.461 C 1408.549 2389.461 1408.498 2389.46 1408.397 2389.46 C 1405.794 2401.865 1404.445 2408.063 1401.651 2420.447 C 1407.007 2420.518 1409.685 2420.533 1415.039 2420.521 Z  M 1380.871 2449.896 C 1390.76 2415.961 1395.283 2398.923 1403.507 2364.75 C 1407.681 2364.801 1409.767 2364.812 1413.938 2364.808 C 1421.774 2399.071 1426.108 2416.157 1435.603 2450.2 C 1430.067 2450.341 1427.298 2450.388 1421.758 2450.442 C 1420.058 2443.093 1419.224 2439.417 1417.591 2432.061 C 1410.198 2432.097 1406.5 2432.077 1399.105 2431.958 C 1397.389 2439.295 1396.514 2442.962 1394.73 2450.292 C 1389.186 2450.177 1386.414 2450.097 1380.871 2449.896 Z " fill="rgb(0,0,0)"/><path d=" M 1455.936 2449.453 C 1454.286 2415.222 1453.459 2398.108 1451.812 2363.877 C 1467.729 2363.109 1475.677 2362.528 1491.531 2360.973 C 1494.875 2395.08 1496.55 2412.131 1499.896 2446.239 C 1494.39 2446.779 1491.634 2447.028 1486.12 2447.482 C 1483.661 2417.644 1482.431 2402.728 1479.973 2372.892 C 1473.983 2373.386 1470.984 2373.605 1464.984 2373.988 C 1466.891 2403.864 1467.844 2418.802 1469.75 2448.68 C 1464.229 2449.032 1461.464 2449.187 1455.936 2449.453 Z " fill="rgb(0,0,0)"/><path d=" M 1526.427 2431.583 C 1527.664 2431.421 1529.063 2431.118 1530.625 2430.664 C 1532.182 2430.211 1533.346 2429.521 1534.115 2428.604 C 1534.732 2427.871 1535.364 2426.747 1536.001 2425.237 C 1536.635 2423.733 1537.116 2421.656 1537.45 2419.012 C 1537.653 2417.087 1537.753 2416.125 1537.949 2414.2 C 1526.545 2392.228 1521.108 2381.152 1510.771 2358.851 C 1516.024 2358.207 1518.648 2357.863 1523.891 2357.133 C 1530.775 2372.454 1534.333 2380.082 1541.677 2395.264 L 1541.931 2395.225 C 1543.283 2378.7 1543.867 2370.44 1544.85 2353.931 C 1550.073 2353.062 1552.681 2352.606 1557.89 2351.651 C 1555.447 2378.573 1553.931 2392.049 1550.302 2419.002 C 1549.698 2423.08 1548.926 2426.733 1547.983 2429.966 C 1547.033 2433.2 1545.355 2435.926 1543.093 2438.132 C 1541.186 2439.993 1539.066 2441.335 1536.743 2442.028 C 1534.42 2442.716 1531.823 2443.255 1528.95 2443.632 C 1528.198 2443.73 1527.822 2443.78 1527.069 2443.877 C 1526.44 2439.008 1526.125 2436.572 1525.495 2431.703 C 1525.868 2431.655 1526.055 2431.631 1526.427 2431.583 Z " fill="rgb(0,0,0)"/><path d=" M 1591.176 2356.66 C 1593.723 2368.026 1594.996 2373.71 1597.544 2385.076 C 1600.01 2384.523 1601.241 2384.243 1603.704 2383.672 C 1606.296 2383.07 1608.224 2382.238 1609.473 2381.196 C 1610.729 2380.154 1611.518 2378.907 1611.896 2377.517 C 1612.255 2376.193 1612.313 2374.649 1612.019 2372.901 C 1611.719 2371.16 1611.311 2369.236 1610.794 2367.131 C 1610.316 2365.185 1609.823 2363.343 1609.311 2361.609 C 1608.799 2359.876 1608.054 2358.431 1607.082 2357.261 C 1606.113 2356.096 1604.897 2355.319 1603.432 2354.929 C 1601.971 2354.533 1600.034 2354.627 1597.608 2355.192 C 1595.036 2355.79 1593.751 2356.084 1591.176 2356.66 Z  M 1593.849 2431.911 C 1586.876 2398.356 1583.39 2381.581 1576.419 2348.027 C 1583.769 2346.501 1587.436 2345.694 1594.751 2343.994 C 1598.099 2343.217 1601.14 2342.942 1603.9 2343.176 C 1606.659 2343.409 1609.343 2344.351 1611.976 2345.998 C 1614.604 2347.651 1616.71 2349.82 1618.271 2352.522 C 1619.831 2355.223 1621.268 2359.06 1622.566 2364.026 C 1623.539 2367.753 1624.136 2370.953 1624.344 2373.631 C 1624.555 2376.313 1624.181 2378.989 1623.281 2381.612 C 1622.205 2384.754 1620.406 2387.5 1617.827 2389.75 C 1615.247 2392.001 1611.535 2393.707 1606.698 2394.831 C 1604.049 2395.447 1602.723 2395.75 1600.07 2396.345 C 1602.996 2409.401 1604.459 2415.931 1607.386 2428.988 C 1601.98 2430.2 1599.272 2430.784 1593.849 2431.911 Z " fill="rgb(0,0,0)"/><path d=" M 1660.694 2415.294 C 1651.142 2382.381 1646.365 2365.927 1636.814 2333.015 C 1641.631 2331.616 1644.035 2330.898 1648.833 2329.424 C 1653.145 2343.457 1655.3 2350.473 1659.613 2364.505 C 1665.812 2362.601 1668.903 2361.618 1675.07 2359.592 C 1670.488 2345.646 1668.197 2338.673 1663.615 2324.726 C 1668.387 2323.157 1670.769 2322.355 1675.522 2320.71 C 1686.726 2353.097 1692.331 2369.288 1703.537 2401.676 C 1698.277 2403.495 1695.641 2404.384 1690.358 2406.12 C 1685.595 2391.625 1683.214 2384.377 1678.452 2369.883 C 1672.205 2371.935 1669.074 2372.931 1662.795 2374.859 C 1667.276 2389.443 1669.517 2396.735 1673.998 2411.32 C 1668.687 2412.951 1666.026 2413.746 1660.694 2415.294 Z " fill="rgb(0,0,0)"/><path d=" M 1743.326 2354.469 C 1736.105 2344.024 1732.538 2338.778 1725.488 2328.24 C 1725.394 2328.279 1725.347 2328.297 1725.253 2328.336 C 1727.577 2340.799 1728.694 2347.045 1730.836 2359.561 C 1735.846 2357.565 1738.344 2356.546 1743.326 2354.469 Z  M 1722.799 2394.761 C 1718.99 2359.613 1716.676 2342.13 1711.243 2307.392 C 1715.144 2305.831 1717.091 2305.037 1720.975 2303.423 C 1741.389 2332.053 1751.97 2346.163 1773.86 2373.937 C 1768.747 2376.21 1766.182 2377.326 1761.039 2379.516 C 1756.641 2373.384 1754.457 2370.31 1750.119 2364.144 C 1743.246 2367.032 1739.797 2368.44 1732.874 2371.177 C 1734.086 2378.616 1734.676 2382.341 1735.823 2389.799 C 1730.627 2391.825 1728.02 2392.819 1722.799 2394.761 Z " fill="rgb(0,0,0)"/><path d=" M 1779.719 2289.152 C 1775.661 2291.199 1773.511 2293.526 1773.267 2296.193 C 1773.023 2298.859 1773.84 2302.138 1775.739 2306.032 C 1776.689 2307.981 1777.642 2309.637 1778.593 2310.999 C 1779.546 2312.363 1780.591 2313.45 1781.698 2314.105 C 1782.843 2314.782 1784.243 2315.063 1785.754 2314.989 C 1787.264 2314.914 1789.072 2314.35 1791.17 2313.294 C 1793.452 2312.144 1794.592 2311.565 1796.867 2310.398 C 1791.99 2300.891 1789.552 2296.138 1784.674 2286.631 C 1782.695 2287.646 1781.703 2288.151 1779.719 2289.152 Z  M 1818.508 2352.581 C 1811.828 2339.56 1808.489 2333.05 1801.809 2320.031 C 1799.599 2321.165 1798.491 2321.727 1796.275 2322.845 C 1798.659 2338.029 1799.757 2345.651 1801.757 2360.952 C 1796.613 2363.457 1794.031 2364.687 1788.853 2367.104 C 1787.227 2351.025 1786.303 2343.014 1784.237 2327.058 C 1782.027 2327.324 1779.897 2327.149 1777.856 2326.52 C 1775.812 2325.897 1773.97 2324.949 1772.321 2323.69 C 1770.664 2322.428 1769.156 2320.746 1767.793 2318.636 C 1766.421 2316.536 1765.178 2314.282 1764.054 2311.882 C 1756.947 2296.703 1760.175 2286.047 1773.519 2279.339 C 1780.409 2275.875 1783.838 2274.099 1790.659 2270.463 C 1806.782 2300.703 1814.845 2315.822 1830.968 2346.063 C 1826.001 2348.712 1823.508 2350.015 1818.508 2352.581 Z " fill="rgb(0,0,0)"/></g></g></svg>